# Blender v2.79 (sub 7) OBJ File: 'Camera.blend'
# www.blender.org
mtllib model.mtl
g text_pause
v 0.153765 0.188874 1.725130
v 0.153765 -0.192449 1.725130
v 0.061937 -0.192449 1.725130
v 0.061937 0.188874 1.725130
v -0.068024 0.188874 1.725130
v -0.068024 -0.192449 1.725130
v -0.159853 -0.192449 1.725130
v -0.159853 0.188874 1.725130
vt 0.000000 0.000000
vt 1.000000 0.000000
vt 1.000000 1.000000
vt 1.000000 0.000000
vt 1.000000 1.000000
vt 0.000000 0.000000
vt 1.000000 0.000000
vt 1.000000 1.000000
vt 1.000000 0.000000
vt 1.000000 1.000000
vn 0.0000 0.0000 1.0000
usemtl None
s off
f 3/1/1 1/2/1 4/3/1
f 3/1/1 2/4/1 1/5/1
f 7/6/1 5/7/1 8/8/1
f 7/6/1 6/9/1 5/10/1
g text_record
v 0.176590 -0.058356 1.725130
v 0.200520 -0.058356 1.725130
v 0.200520 -0.037928 1.725130
v 0.269975 -0.037928 1.725130
v 0.269975 -0.084621 1.725130
v 0.248963 -0.119932 1.725130
v 0.128730 -0.119932 1.725130
v 0.107135 -0.084037 1.725130
v 0.107135 0.050496 1.725130
v 0.128730 0.086391 1.725130
v 0.248963 0.086391 1.725130
v 0.269975 0.046702 1.725130
v 0.269975 0.004387 1.725130
v 0.200520 0.004387 1.725130
v 0.200520 0.024815 1.725130
v 0.176590 0.024815 1.725130
v 0.089625 0.086391 1.725130
v -0.070881 0.086391 1.725130
v -0.070881 0.025691 1.725130
v -0.054539 0.025691 1.725130
v -0.054539 -0.119932 1.725130
v 0.089625 -0.119932 1.725130
v 0.089625 -0.058648 1.725130
v 0.014917 -0.058648 1.725130
v 0.014917 -0.043765 1.725130
v 0.062777 -0.043765 1.725130
v 0.062777 0.010224 1.725130
v 0.014917 0.010224 1.725130
v 0.014917 0.025107 1.725130
v 0.089625 0.025107 1.725130
v -0.251231 0.025691 1.725130
v -0.251231 -0.119932 1.725130
v -0.181776 -0.119932 1.725130
v -0.181776 -0.068862 1.725130
v -0.158430 -0.119932 1.725130
v -0.088391 -0.119932 1.725130
v -0.088391 -0.058648 1.725130
v -0.112029 -0.058648 1.725130
v -0.088391 -0.022753 1.725130
v -0.088391 0.044076 1.725130
v -0.111153 0.086391 1.725130
v -0.267574 0.086391 1.725130
v -0.267574 0.025691 1.725130
v -0.181776 0.002928 1.725130
v -0.181776 0.025399 1.725130
v -0.157846 0.025399 1.725130
v -0.157846 0.002928 1.725130
vt 0.000000 0.000000
vt 1.000000 0.000000
vt 1.000000 1.000000
vt 1.000000 0.000000
vt 1.000000 1.000000
vt 0.000000 0.000000
vt 1.000000 0.000000
vt 1.000000 1.000000
vt 0.000000 0.000000
vt 1.000000 0.000000
vt 1.000000 1.000000
vt 0.000000 0.000000
vt 1.000000 0.000000
vt 1.000000 0.000000
vt 1.000000 1.000000
vt 0.000000 0.000000
vt 1.000000 1.000000
vt 0.000000 0.000000
vt 1.000000 0.000000
vt 1.000000 1.000000
vt 1.000000 0.000000
vt 1.000000 1.000000
vt 1.000000 0.000000
vt 1.000000 1.000000
vt 1.000000 1.000000
vt 0.000000 0.000000
vt 1.000000 1.000000
vt 1.000000 0.000000
vt 1.000000 1.000000
vt 0.000000 0.000000
vt 1.000000 0.000000
vt 1.000000 1.000000
vt 1.000000 0.000000
vt 1.000000 1.000000
vt 0.000000 0.000000
vt 1.000000 0.000000
vt 0.000000 0.000000
vt 1.000000 0.000000
vt 1.000000 1.000000
vt 0.000000 0.000000
vt 1.000000 0.000000
vt 1.000000 1.000000
vt 1.000000 0.000000
vt 1.000000 1.000000
vt 1.000000 0.000000
vt 1.000000 1.000000
vt 0.000000 0.000000
vt 1.000000 0.000000
vt 1.000000 0.000000
vt 1.000000 1.000000
vt 1.000000 0.000000
vt 1.000000 1.000000
vt 1.000000 0.000000
vt 1.000000 1.000000
vt 0.000000 0.000000
vt 1.000000 0.000000
vt 1.000000 1.000000
vt 1.000000 0.000000
vt 1.000000 1.000000
vt 1.000000 0.000000
vt 1.000000 1.000000
vt 0.000000 0.000000
vt 1.000000 0.000000
vt 0.000000 0.000000
vt 1.000000 0.000000
vt 0.000000 0.000000
vt 1.000000 0.000000
vt 1.000000 1.000000
vt 0.000000 0.000000
vt 1.000000 0.000000
vt 1.000000 1.000000
vt 0.000000 0.000000
vt 1.000000 1.000000
vt 1.000000 0.000000
vt 1.000000 1.000000
vt 1.000000 0.000000
vt 1.000000 1.000000
vt 0.000000 0.000000
vt 1.000000 0.000000
vt 1.000000 1.000000
vt 1.000000 0.000000
vt 1.000000 1.000000
vt 1.000000 0.000000
vt 1.000000 1.000000
vt 1.000000 0.000000
vt 1.000000 1.000000
vt 0.000000 0.000000
vn 0.0000 0.0000 1.0000
vn 0.0001 0.0000 1.0000
usemtl None
s off
f 17/11/2 19/12/2 18/13/2
f 17/11/2 20/14/2 19/15/2
f 16/16/2 24/17/2 17/18/2
f 24/19/2 20/14/2 17/18/2
f 24/19/2 23/20/2 20/21/2
f 23/22/2 21/23/2 20/21/2
f 16/16/2 9/24/2 24/25/2
f 22/26/2 21/23/2 23/27/2
f 10/28/2 12/29/2 11/30/2
f 10/28/2 13/31/2 12/32/2
f 16/16/2 10/33/2 9/34/2
f 16/16/2 13/31/2 10/35/2
f 15/36/2 13/31/2 16/37/2
f 15/36/2 14/38/2 13/39/2
f 27/40/2 25/41/2 26/42/2
f 27/40/2 28/43/2 25/44/2
f 28/45/2 38/46/2 25/44/2
f 29/47/2 37/48/2 28/49/2
f 37/50/2 38/46/2 28/49/2
f 29/47/2 36/51/2 37/52/2
f 29/47/2 35/53/2 36/54/2
f 29/47/3 33/55/3 35/56/3
f 33/57/2 34/58/2 35/56/2
f 29/47/2 32/59/2 33/60/2
f 29/47/2 31/61/2 32/62/2
f 29/47/2 30/63/2 31/64/2
f 51/65/2 49/66/2 50/67/2
f 51/65/2 48/68/2 49/69/2
f 51/65/2 39/70/2 48/71/2
f 39/72/2 54/73/2 48/71/2
f 54/74/2 47/75/2 48/71/2
f 40/76/2 53/77/2 39/78/2
f 53/79/2 54/73/2 39/78/2
f 40/76/2 52/80/2 53/81/2
f 55/82/2 47/75/2 54/83/2
f 40/76/2 55/84/2 52/85/2
f 40/76/2 42/86/2 55/87/2
f 42/88/2 47/75/2 55/87/2
f 42/88/2 46/89/2 47/90/2
f 42/88/2 45/91/2 46/92/2
f 42/88/2 44/93/2 45/94/2
f 40/76/2 41/95/2 42/96/2
f 43/97/2 44/93/2 42/96/2
g text_play
v 0.065001 0.133552 1.725130
v 0.158387 0.133552 1.725130
v 0.216363 -0.004191 1.725130
v 0.158387 -0.141545 1.725130
v 0.065001 -0.141545 1.725130
v 0.122978 -0.004191 1.725130
v -0.204648 0.133552 1.725130
v -0.111263 0.133552 1.725130
v -0.053287 -0.004191 1.725130
v -0.111263 -0.141545 1.725130
v -0.204648 -0.141545 1.725130
v -0.146672 -0.004191 1.725130
vt 0.000000 0.000000
vt 1.000000 0.000000
vt 1.000000 1.000000
vt 1.000000 0.000000
vt 1.000000 1.000000
vt 0.000000 0.000000
vt 1.000000 1.000000
vt 1.000000 0.000000
vt 1.000000 1.000000
vt 0.000000 0.000000
vt 1.000000 0.000000
vt 1.000000 1.000000
vt 1.000000 0.000000
vt 1.000000 1.000000
vt 0.000000 0.000000
vt 1.000000 1.000000
vt 1.000000 0.000000
vt 1.000000 1.000000
vn 0.0000 0.0000 1.0000
usemtl None
s off
f 61/98/4 57/99/4 56/100/4
f 61/98/4 58/101/4 57/102/4
f 60/103/4 58/101/4 61/104/4
f 60/103/4 59/105/4 58/106/4
f 67/107/4 63/108/4 62/109/4
f 67/107/4 64/110/4 63/111/4
f 66/112/4 64/110/4 67/113/4
f 66/112/4 65/114/4 64/115/4
g cam-detail1
v 0.150000 -0.500000 -1.000000
v -0.150000 -0.500000 -1.000000
v -0.150000 -0.500000 0.933885
v 0.150000 -0.500000 0.933885
v 0.450000 -0.464810 1.000000
v 0.150000 -0.464810 1.000000
v -0.150000 -0.464810 1.000000
v -0.450000 -0.464810 1.000000
v -0.450000 -0.464810 0.956649
v 0.450000 -0.464810 0.956649
v 0.450000 -0.482405 1.000000
v 0.150000 -0.482405 1.000000
v -0.150000 -0.482405 1.000000
v -0.450000 -0.482405 0.956649
v 0.450000 -0.482405 0.956649
v -0.450000 -0.482405 1.000000
v -0.450000 0.475315 1.000000
v 0.450000 0.475315 1.000000
v 0.150000 0.475315 1.000000
v -0.150000 0.475315 1.000000
v 0.450000 0.475315 0.956649
v -0.450000 0.475315 0.956649
v 0.450000 0.453132 1.000000
v 0.150000 0.453132 1.000000
v -0.150000 0.453132 1.000000
v 0.450000 0.453132 0.956649
v -0.450000 0.453132 0.956649
v -0.450000 0.453132 1.000000
v 0.150000 -0.526103 -1.000000
v -0.150000 -0.526103 -1.000000
v -0.150000 -0.526103 0.933885
v 0.150000 -0.526103 0.933885
vt 0.000000 0.000000
vt 1.000000 0.000000
vt 1.000000 1.000000
vt 0.000000 1.000000
vt 0.000000 0.000000
vt 1.000000 0.000000
vt 1.000000 1.000000
vt 0.000000 1.000000
vt 0.000000 0.000000
vt 1.000000 0.000000
vt 1.000000 1.000000
vt 0.000000 1.000000
vt 0.000000 0.000000
vt 1.000000 0.000000
vt 1.000000 1.000000
vt 0.000000 1.000000
vt 0.000000 0.000000
vt 1.000000 0.000000
vt 1.000000 1.000000
vt 0.000000 1.000000
vt 0.000000 0.000000
vt 1.000000 0.000000
vt 1.000000 1.000000
vt 0.000000 1.000000
vt 0.000000 0.000000
vt 1.000000 0.000000
vt 1.000000 1.000000
vt 0.000000 1.000000
vt 0.000000 0.000000
vt 1.000000 0.000000
vt 1.000000 1.000000
vt 0.000000 1.000000
vt 0.000000 0.000000
vt 1.000000 0.000000
vt 1.000000 1.000000
vt 0.000000 1.000000
vt 0.000000 0.000000
vt 1.000000 0.000000
vt 1.000000 1.000000
vt 0.000000 1.000000
vt 0.000000 0.000000
vt 1.000000 0.000000
vt 1.000000 1.000000
vt 0.000000 1.000000
vt 0.000000 0.000000
vt 1.000000 0.000000
vt 1.000000 1.000000
vt 0.000000 0.000000
vt 1.000000 0.000000
vt 1.000000 1.000000
vt 0.000000 1.000000
vt 0.000000 0.000000
vt 1.000000 0.000000
vt 0.000000 1.000000
vt 0.000000 0.000000
vt 1.000000 0.000000
vt 1.000000 1.000000
vt 0.000000 1.000000
vn -1.0000 0.0000 0.0000
vn 1.0000 0.0000 0.0000
vn 0.0000 0.0000 1.0000
vn 0.0000 -1.0000 0.0000
vn 0.0000 0.0000 -1.0000
usemtl Material.003
s off
f 70/116/5 69/117/5 97/118/5 98/119/5
f 83/120/5 75/121/5 76/122/5 81/123/5
f 82/124/6 77/125/6 72/126/6 78/127/6
f 80/128/7 74/129/7 75/130/7 83/131/7
f 78/132/7 72/133/7 73/134/7 79/135/7
f 79/136/7 73/137/7 74/138/7 80/139/7
f 95/140/5 84/141/5 89/142/5 94/143/5
f 91/144/7 86/145/7 87/146/7 92/147/7
f 90/148/7 85/149/7 86/150/7 91/151/7
f 92/152/7 87/153/7 84/154/7 95/155/7
f 93/156/6 88/157/6 85/158/6 90/159/6
f 97/160/8 96/161/8 99/162/8 98/119/8
f 69/163/9 68/164/9 96/165/9 97/166/9
f 68/167/6 71/168/6 99/162/6 96/169/6
f 71/170/7 70/171/7 98/172/7 99/173/7
g cam-detail2
v -0.308581 0.342868 -1.000000
v -0.308581 -0.342868 -1.000000
v 0.308581 0.342868 -1.000000
v 0.308581 -0.342868 -1.000000
v -0.308581 0.342868 -1.080609
v -0.308581 -0.342868 -1.080609
v 0.308581 0.342868 -1.080609
v 0.308581 -0.342868 -1.080609
v -0.450000 0.500000 0.956649
v 0.450000 0.500000 0.956649
v 0.150000 0.500000 0.956649
v -0.150000 0.500000 0.956649
v 0.450000 -0.166667 0.956649
v 0.450000 0.166667 0.956649
v -0.450000 -0.166667 0.956649
v -0.450000 0.166667 0.956649
v -0.450000 0.500000 0.933885
v -0.450000 -0.166667 0.933885
v -0.450000 0.166667 0.933885
v 0.450000 0.500000 0.933885
v 0.150000 0.500000 0.933885
v -0.150000 0.500000 0.933885
v 0.450000 -0.166667 0.933885
v 0.450000 0.166667 0.933885
v -0.450000 -0.464810 -1.000000
v 0.450000 -0.464810 -1.000000
v -0.450000 -0.464810 0.956649
v 0.450000 -0.464810 0.956649
v 0.450000 -0.464810 0.933885
v -0.450000 -0.464810 0.933885
v -0.450000 -0.482405 -1.000000
v 0.450000 -0.482405 -1.000000
v -0.450000 -0.482405 0.956649
v 0.450000 -0.482405 0.956649
v 0.450000 -0.482405 0.933885
v -0.450000 -0.482405 0.933885
v -0.450000 0.475315 -1.000000
v 0.450000 0.475315 -1.000000
v -0.161744 0.488364 -1.000000
v 0.161744 0.488364 -1.000000
v 0.450000 0.475315 0.956649
v -0.450000 0.475315 0.956649
v 0.450000 0.475315 0.933885
v -0.450000 0.475315 0.933885
v -0.450000 0.453132 -1.000000
v 0.450000 0.453132 -1.000000
v -0.172297 0.477907 -1.000000
v 0.172297 0.477907 -1.000000
v 0.450000 0.453132 0.956649
v -0.450000 0.453132 0.956649
v 0.450000 0.453132 0.933885
v -0.450000 0.453132 0.933885
vt 0.000000 0.000000
vt 1.000000 0.000000
vt 1.000000 1.000000
vt 0.000000 1.000000
vt 0.000000 0.000000
vt 1.000000 0.000000
vt 1.000000 1.000000
vt 0.000000 0.000000
vt 1.000000 0.000000
vt 0.000000 1.000000
vt 0.000000 0.000000
vt 1.000000 0.000000
vt 1.000000 1.000000
vt 0.000000 1.000000
vt 0.000000 0.000000
vt 1.000000 0.000000
vt 1.000000 1.000000
vt 0.000000 1.000000
vt 0.000000 0.000000
vt 1.000000 0.000000
vt 1.000000 1.000000
vt 0.000000 1.000000
vt 0.000000 0.000000
vt 1.000000 0.000000
vt 1.000000 1.000000
vt 0.000000 1.000000
vt 0.000000 0.000000
vt 1.000000 0.000000
vt 1.000000 1.000000
vt 0.000000 1.000000
vt 0.000000 0.000000
vt 1.000000 0.000000
vt 1.000000 1.000000
vt 0.000000 1.000000
vt 0.000000 0.000000
vt 1.000000 0.000000
vt 1.000000 1.000000
vt 0.000000 1.000000
vt 0.000000 0.000000
vt 1.000000 0.000000
vt 1.000000 1.000000
vt 0.000000 1.000000
vt 0.000000 0.000000
vt 1.000000 0.000000
vt 1.000000 1.000000
vt 0.000000 1.000000
vt 0.000000 0.000000
vt 1.000000 0.000000
vt 1.000000 1.000000
vt 0.000000 1.000000
vt 0.000000 0.000000
vt 1.000000 0.000000
vt 1.000000 1.000000
vt 0.000000 1.000000
vt 0.000000 0.000000
vt 1.000000 0.000000
vt 1.000000 1.000000
vt 0.000000 1.000000
vt 0.000000 0.000000
vt 1.000000 0.000000
vt 1.000000 1.000000
vt 0.000000 1.000000
vt 0.000000 0.000000
vt 1.000000 0.000000
vt 1.000000 1.000000
vt 0.000000 1.000000
vt 0.000000 0.000000
vt 1.000000 0.000000
vt 1.000000 1.000000
vt 0.000000 1.000000
vt 0.000000 0.000000
vt 1.000000 0.000000
vt 1.000000 1.000000
vt 0.000000 1.000000
vt 0.000000 0.000000
vt 1.000000 0.000000
vt 1.000000 1.000000
vt 0.000000 1.000000
vt 0.000000 0.000000
vt 1.000000 0.000000
vt 1.000000 1.000000
vt 0.000000 1.000000
vt 0.000000 0.000000
vt 1.000000 0.000000
vt 1.000000 1.000000
vt 0.000000 1.000000
vt 0.000000 0.000000
vt 1.000000 0.000000
vt 1.000000 1.000000
vt 0.000000 1.000000
vt 0.000000 0.000000
vt 1.000000 0.000000
vt 1.000000 1.000000
vt 0.000000 1.000000
vt 0.000000 0.000000
vt 1.000000 0.000000
vt 1.000000 1.000000
vt 0.000000 1.000000
vt 0.000000 0.000000
vt 1.000000 0.000000
vt 1.000000 1.000000
vt 0.000000 1.000000
vt 0.000000 0.000000
vt 1.000000 0.000000
vt 1.000000 1.000000
vt 0.000000 1.000000
vn 0.7071 -0.7071 0.0000
vn -0.7071 -0.7071 0.0000
vn -0.5773 -0.5773 -0.5773
vn 0.5773 -0.5773 -0.5773
vn -0.5773 0.5773 -0.5773
vn 0.5773 0.5773 -0.5773
vn -0.7071 0.7071 0.0000
vn 0.7071 0.7071 0.0000
vn 1.0000 0.0000 0.0000
vn 0.0000 1.0000 0.0000
vn -1.0000 0.0000 0.0000
vn 0.7274 0.0000 -0.6862
vn 0.6970 0.0000 -0.7171
vn 0.0000 0.0000 -1.0000
vn -0.7274 0.0000 -0.6862
vn -0.6970 0.0000 -0.7171
usemtl Material.004
s 1
f 103/174/10 101/175/11 105/176/12 107/177/13
f 105/178/12 104/179/14 106/180/15 107/177/13
f 100/181/16 102/182/17 106/180/15 104/183/14
f 102/184/17 103/185/10 107/186/13 106/187/15
f 101/188/11 100/189/16 104/190/14 105/191/12
f 122/192/18 123/193/18 113/194/18 112/195/18
f 128/196/18 122/197/18 112/198/18 127/199/18
f 120/200/19 121/201/19 111/202/19 110/203/19
f 119/204/17 120/205/19 110/206/19 109/207/17
f 121/208/19 116/209/16 108/210/16 111/211/19
f 142/212/18 119/213/17 109/214/17 140/215/18
f 114/216/20 115/217/20 118/218/20 117/219/20
f 126/220/20 114/221/20 117/222/20 129/223/20
f 141/224/20 108/225/16 116/226/16 143/227/20
f 132/228/20 126/229/20 129/230/20 135/231/20
f 131/232/18 125/233/18 128/234/18 134/235/18
f 134/236/18 128/237/18 127/238/18 133/239/18
f 135/240/20 129/241/20 124/242/20 130/243/20
f 149/244/20 141/245/20 143/246/20 151/247/20
f 145/248/21 137/249/22 142/250/18 150/251/18
f 150/252/18 142/253/18 140/254/18 148/255/18
f 146/256/23 138/257/23 139/258/23 147/259/23
f 144/260/24 136/261/25 138/262/23 146/263/23
f 147/264/23 139/265/23 137/266/22 145/267/21
f 151/268/20 143/269/20 136/270/25 144/271/24
f 123/272/18 150/273/18 148/274/18 113/275/18
f 115/276/20 149/277/20 151/278/20 118/279/20
g cam-body
v -0.450000 -0.500000 1.000000
v -0.450000 0.500000 1.000000
v -0.450000 -0.500000 -1.000000
v -0.450000 0.500000 -1.000000
v 0.450000 -0.500000 1.000000
v 0.450000 0.500000 1.000000
v 0.450000 -0.500000 -1.000000
v 0.450000 0.500000 -1.000000
v 0.150000 -0.500000 -1.000000
v -0.150000 -0.500000 -1.000000
v -0.150000 0.500000 -1.000000
v 0.150000 0.500000 -1.000000
v -0.150000 -0.500000 1.000000
v 0.150000 -0.500000 1.000000
v 0.150000 0.500000 1.000000
v -0.150000 0.500000 1.000000
v -0.450000 -0.166667 1.000000
v -0.450000 0.166667 1.000000
v -0.450000 0.166667 -1.000000
v -0.450000 -0.166667 -1.000000
v 0.450000 0.166667 -1.000000
v 0.450000 -0.166667 -1.000000
v 0.450000 0.166667 1.000000
v 0.450000 -0.166667 1.000000
v 0.150000 0.166667 1.000000
v 0.150000 -0.166667 1.000000
v -0.150000 0.166667 1.000000
v -0.150000 -0.166667 1.000000
v -0.308581 0.342868 -1.000000
v -0.308581 -0.342868 -1.000000
v 0.308581 0.342868 -1.000000
v 0.308581 -0.342868 -1.000000
v -0.450000 -0.500000 0.956649
v -0.450000 0.500000 0.956649
v 0.450000 -0.500000 0.956649
v 0.450000 0.500000 0.956649
v 0.150000 0.500000 0.956649
v -0.150000 0.500000 0.956649
v -0.150000 -0.500000 0.956649
v 0.150000 -0.500000 0.956649
v 0.450000 -0.166667 0.956649
v 0.450000 0.166667 0.956649
v -0.450000 -0.166667 0.956649
v -0.450000 0.166667 0.956649
v -0.450000 0.500000 0.933885
v 0.450000 -0.500000 0.933885
v -0.450000 -0.166667 0.933885
v -0.450000 0.166667 0.933885
v -0.450000 -0.500000 0.933885
v 0.450000 0.500000 0.933885
v 0.150000 0.500000 0.933885
v -0.150000 0.500000 0.933885
v -0.150000 -0.500000 0.933885
v 0.150000 -0.500000 0.933885
v 0.450000 -0.166667 0.933885
v 0.450000 0.166667 0.933885
v -0.450000 -0.464810 -1.000000
v 0.450000 -0.464810 -1.000000
v 0.450000 -0.464810 1.000000
v 0.150000 -0.464810 1.000000
v -0.150000 -0.464810 1.000000
v -0.166741 -0.483412 -1.000000
v 0.166741 -0.483412 -1.000000
v -0.450000 -0.464810 1.000000
v -0.450000 -0.464810 0.956649
v 0.450000 -0.464810 0.956649
v 0.450000 -0.464810 0.933885
v -0.450000 -0.464810 0.933885
v -0.450000 -0.482405 -1.000000
v 0.450000 -0.482405 -1.000000
v 0.450000 -0.482405 1.000000
v 0.150000 -0.482405 1.000000
v -0.150000 -0.482405 1.000000
v -0.158371 -0.491706 -1.000000
v 0.158371 -0.491706 -1.000000
v -0.450000 -0.482405 0.956649
v 0.450000 -0.482405 0.956649
v 0.450000 -0.482405 0.933885
v -0.450000 -0.482405 0.933885
v -0.450000 -0.482405 1.000000
v -0.450000 0.475315 1.000000
v -0.450000 0.475315 -1.000000
v 0.450000 0.475315 -1.000000
v 0.450000 0.475315 1.000000
v 0.150000 0.475315 1.000000
v -0.150000 0.475315 1.000000
v -0.161744 0.488364 -1.000000
v 0.161744 0.488364 -1.000000
v 0.450000 0.475315 0.956649
v -0.450000 0.475315 0.956649
v 0.450000 0.475315 0.933885
v -0.450000 0.475315 0.933885
v -0.450000 0.453132 -1.000000
v 0.450000 0.453132 -1.000000
v 0.450000 0.453132 1.000000
v 0.150000 0.453132 1.000000
v -0.150000 0.453132 1.000000
v -0.172297 0.477907 -1.000000
v 0.172297 0.477907 -1.000000
v 0.450000 0.453132 0.956649
v -0.450000 0.453132 0.956649
v 0.450000 0.453132 0.933885
v -0.450000 0.453132 0.933885
v -0.450000 0.453132 1.000000
vt 0.000000 0.000000
vt 1.000000 0.000000
vt 1.000000 1.000000
vt 0.000000 1.000000
vt 0.000000 0.000000
vt 1.000000 0.000000
vt 1.000000 1.000000
vt 0.000000 1.000000
vt 0.000000 0.000000
vt 1.000000 0.000000
vt 1.000000 1.000000
vt 0.000000 1.000000
vt 0.000000 0.000000
vt 1.000000 0.000000
vt 1.000000 1.000000
vt 0.000000 1.000000
vt 0.000000 0.000000
vt 1.000000 0.000000
vt 1.000000 1.000000
vt 0.000000 1.000000
vt 0.000000 0.000000
vt 1.000000 0.000000
vt 0.000000 1.000000
vt 0.000000 0.000000
vt 1.000000 0.000000
vt 1.000000 1.000000
vt 0.000000 1.000000
vt 0.000000 0.000000
vt 1.000000 0.000000
vt 1.000000 1.000000
vt 0.000000 1.000000
vt 0.000000 0.000000
vt 1.000000 0.000000
vt 1.000000 1.000000
vt 0.000000 1.000000
vt 0.000000 0.000000
vt 1.000000 0.000000
vt 1.000000 1.000000
vt 0.000000 1.000000
vt 0.000000 0.000000
vt 1.000000 0.000000
vt 0.000000 1.000000
vt 0.000000 0.000000
vt 1.000000 0.000000
vt 0.000000 1.000000
vt 0.000000 0.000000
vt 1.000000 0.000000
vt 1.000000 1.000000
vt 0.000000 1.000000
vt 0.000000 0.000000
vt 1.000000 0.000000
vt 1.000000 1.000000
vt 0.000000 1.000000
vt 0.000000 0.000000
vt 1.000000 0.000000
vt 1.000000 1.000000
vt 0.000000 1.000000
vt 0.000000 0.000000
vt 1.000000 0.000000
vt 1.000000 1.000000
vt 0.000000 1.000000
vt 0.000000 0.000000
vt 1.000000 0.000000
vt 1.000000 1.000000
vt 0.000000 1.000000
vt 0.000000 0.000000
vt 1.000000 0.000000
vt 1.000000 1.000000
vt 0.000000 1.000000
vt 0.000000 0.000000
vt 1.000000 0.000000
vt 1.000000 1.000000
vt 0.000000 1.000000
vt 0.000000 0.000000
vt 1.000000 0.000000
vt 1.000000 1.000000
vt 0.000000 1.000000
vt 0.000000 0.000000
vt 1.000000 0.000000
vt 1.000000 1.000000
vt 0.000000 1.000000
vt 0.000000 0.000000
vt 1.000000 0.000000
vt 1.000000 1.000000
vt 0.000000 1.000000
vt 0.000000 0.000000
vt 1.000000 0.000000
vt 1.000000 1.000000
vt 0.000000 1.000000
vt 0.000000 0.000000
vt 1.000000 0.000000
vt 1.000000 1.000000
vt 0.000000 1.000000
vt 0.000000 0.000000
vt 1.000000 0.000000
vt 1.000000 1.000000
vt 0.000000 1.000000
vt 0.000000 0.000000
vt 1.000000 0.000000
vt 1.000000 1.000000
vt 0.000000 1.000000
vt 0.000000 0.000000
vt 1.000000 0.000000
vt 1.000000 1.000000
vt 0.000000 1.000000
vt 0.000000 0.000000
vt 1.000000 0.000000
vt 1.000000 1.000000
vt 0.000000 1.000000
vt 0.000000 0.000000
vt 1.000000 0.000000
vt 1.000000 1.000000
vt 0.000000 1.000000
vt 0.000000 0.000000
vt 1.000000 0.000000
vt 1.000000 1.000000
vt 0.000000 1.000000
vt 0.000000 0.000000
vt 1.000000 0.000000
vt 1.000000 1.000000
vt 0.000000 1.000000
vt 0.000000 0.000000
vt 1.000000 0.000000
vt 1.000000 1.000000
vt 0.000000 1.000000
vt 0.000000 0.000000
vt 1.000000 0.000000
vt 1.000000 1.000000
vt 0.000000 1.000000
vt 0.000000 0.000000
vt 1.000000 0.000000
vt 1.000000 1.000000
vt 0.000000 1.000000
vt 0.000000 0.000000
vt 1.000000 0.000000
vt 1.000000 1.000000
vt 0.000000 1.000000
vt 0.000000 0.000000
vt 1.000000 0.000000
vt 1.000000 1.000000
vt 0.000000 1.000000
vt 0.000000 0.000000
vt 1.000000 0.000000
vt 1.000000 1.000000
vt 0.000000 1.000000
vt 0.000000 0.000000
vt 1.000000 1.000000
vt 0.000000 1.000000
vt 0.000000 0.000000
vt 1.000000 1.000000
vt 0.000000 1.000000
vt 0.000000 0.000000
vt 1.000000 1.000000
vt 0.000000 1.000000
vt 0.000000 0.000000
vt 1.000000 0.000000
vt 1.000000 1.000000
vt 0.000000 1.000000
vt 0.000000 0.000000
vt 1.000000 0.000000
vt 1.000000 1.000000
vt 0.000000 1.000000
vt 0.000000 0.000000
vt 1.000000 0.000000
vt 1.000000 1.000000
vt 0.000000 1.000000
vt 0.000000 0.000000
vt 1.000000 0.000000
vt 1.000000 1.000000
vt 0.000000 1.000000
vt 0.000000 0.000000
vt 1.000000 0.000000
vt 1.000000 1.000000
vt 0.000000 1.000000
vt 0.000000 0.000000
vt 1.000000 0.000000
vt 1.000000 1.000000
vt 0.000000 1.000000
vt 0.000000 0.000000
vt 1.000000 0.000000
vt 1.000000 1.000000
vt 0.000000 1.000000
vt 1.000000 0.000000
vt 1.000000 1.000000
vt 0.000000 1.000000
vt 0.000000 0.000000
vt 1.000000 0.000000
vt 1.000000 1.000000
vt 0.000000 0.000000
vt 1.000000 0.000000
vt 1.000000 1.000000
vt 0.000000 0.000000
vt 1.000000 0.000000
vt 1.000000 1.000000
vt 0.000000 0.000000
vt 1.000000 0.000000
vt 1.000000 1.000000
vt 0.000000 1.000000
vt 1.000000 0.000000
vt 1.000000 1.000000
vt 0.000000 1.000000
vt 1.000000 0.000000
vt 1.000000 1.000000
vt 0.000000 1.000000
vt 0.000000 0.000000
vt 1.000000 0.000000
vt 1.000000 1.000000
vt 0.000000 0.000000
vt 1.000000 0.000000
vt 1.000000 1.000000
vt 0.000000 1.000000
vt 0.000000 0.000000
vt 1.000000 0.000000
vt 1.000000 1.000000
vt 0.000000 1.000000
vt 1.000000 0.000000
vt 1.000000 1.000000
vt 0.000000 0.000000
vt 1.000000 0.000000
vt 1.000000 1.000000
vt 0.000000 1.000000
vt 0.000000 0.000000
vt 1.000000 0.000000
vt 1.000000 1.000000
vt 0.000000 1.000000
vt 0.000000 0.000000
vt 1.000000 0.000000
vt 1.000000 1.000000
vt 0.000000 1.000000
vt 0.000000 0.000000
vt 1.000000 0.000000
vt 1.000000 1.000000
vt 0.000000 1.000000
vt 0.000000 0.000000
vt 1.000000 0.000000
vt 1.000000 1.000000
vt 0.000000 1.000000
vt 0.000000 0.000000
vt 1.000000 0.000000
vt 1.000000 1.000000
vt 0.000000 1.000000
vt 0.000000 0.000000
vt 1.000000 0.000000
vt 1.000000 1.000000
vt 0.000000 1.000000
vt 0.000000 0.000000
vt 1.000000 0.000000
vt 1.000000 1.000000
vt 0.000000 1.000000
vt 0.000000 0.000000
vt 1.000000 0.000000
vt 1.000000 1.000000
vt 0.000000 1.000000
vt 0.000000 0.000000
vt 1.000000 0.000000
vt 1.000000 1.000000
vt 0.000000 1.000000
vn -1.0000 0.0000 0.0000
vn 0.0000 0.0000 -1.0000
vn 1.0000 0.0000 0.0000
vn 0.0000 0.0000 1.0000
vn 0.0000 -1.0000 0.0000
vn 0.0000 1.0000 0.0000
usemtl Material
s off
f 243/280/26 196/281/26 155/282/26 233/283/26
f 239/284/27 163/285/27 159/286/27 234/287/27
f 240/288/28 187/289/28 157/290/28 235/291/28
f 237/292/29 167/293/29 153/294/29 232/295/29
f 191/296/30 186/297/30 156/298/30 165/299/30
f 189/300/31 185/301/31 153/294/31 167/302/31
f 187/303/31 188/304/31 166/305/31 157/306/31
f 188/307/31 189/308/31 167/309/31 166/310/31
f 184/311/30 190/312/30 164/313/30 152/314/30
f 190/315/30 191/316/30 165/317/30 164/318/30
f 235/319/29 157/320/29 166/305/29 236/321/29
f 236/322/29 166/323/29 167/309/29 237/324/29
f 233/325/27 155/326/27 162/327/27 238/328/27
f 238/329/27 162/330/27 163/331/27 239/332/27
f 213/333/27 181/334/27 183/335/27 214/336/27
f 208/337/27 171/338/27 181/339/27 213/340/27
f 171/341/27 170/342/27 180/343/27 181/344/27
f 211/345/29 177/346/29 179/347/29 212/348/29
f 177/349/29 176/350/29 178/351/29 179/352/29
f 210/353/29 175/354/29 177/355/29 211/356/29
f 175/357/29 174/358/29 176/359/29 177/360/29
f 212/361/29 179/362/29 168/363/29 215/364/29
f 179/365/29 178/366/29 169/367/29 168/368/29
f 217/369/28 192/370/28 175/371/28 210/372/28
f 192/373/28 193/374/28 174/375/28 175/376/28
f 214/377/27 183/378/27 173/379/27 209/380/27
f 183/381/27 182/382/27 172/383/27 173/384/27
f 219/385/26 198/386/26 171/387/26 208/388/26
f 198/389/26 199/390/26 170/391/26 171/392/26
f 168/393/26 169/394/26 195/395/26 194/396/26
f 215/397/26 168/398/26 194/399/26 216/400/26
f 204/401/30 205/402/30 191/403/30 190/404/30
f 200/405/30 204/406/30 190/407/30 184/408/30
f 205/409/30 197/410/30 186/411/30 191/412/30
f 232/413/26 153/414/26 185/415/26 241/416/26
f 234/417/28 159/418/28 201/419/28 242/420/28
f 160/421/30 158/422/30 197/423/30 205/424/30
f 162/425/31 155/326/31 196/426/31 203/427/31
f 159/428/31 163/285/31 202/429/31 201/430/31
f 163/431/31 162/330/31 203/432/31 202/433/31
f 154/434/30 161/435/30 204/436/30 200/437/30
f 209/438/28 173/439/28 206/440/28 218/441/28
f 173/442/28 172/443/28 207/444/28 206/445/28
f 226/446/27 214/447/27 209/448/27 221/449/27
f 220/450/27 208/451/27 213/452/27 225/453/27
f 225/454/27 213/455/27 214/456/27 226/457/27
f 161/458/27 225/459/27 226/460/27 160/461/27
f 154/434/27 220/462/27 225/463/27 161/464/27
f 165/465/29 223/466/29 224/467/29 164/318/29
f 156/468/29 222/469/29 223/470/29 165/299/29
f 164/471/29 224/472/29 231/473/29 152/314/29
f 186/474/28 228/475/28 222/476/28 156/477/28
f 160/421/27 226/478/27 221/479/27 158/480/27
f 200/405/26 230/481/26 220/482/26 154/483/26
f 152/484/26 231/485/26 227/486/26 184/408/26
f 197/487/28 229/488/28 228/489/28 186/490/28
f 158/491/28 221/492/28 229/493/28 197/494/28
f 184/311/26 227/495/26 230/496/26 200/437/26
f 199/497/26 254/498/26 244/499/26 170/500/26
f 182/501/27 250/502/27 245/503/27 172/504/27
f 193/505/28 251/506/28 246/507/28 174/508/28
f 178/509/29 248/510/29 255/511/29 169/512/29
f 174/513/29 246/514/29 247/515/29 176/516/29
f 176/517/29 247/518/29 248/519/29 178/520/29
f 170/521/27 244/522/27 249/523/27 180/524/27
f 180/525/27 249/526/27 250/527/27 182/528/27
f 169/529/26 255/530/26 252/531/26 195/532/26
f 172/533/28 245/534/28 253/535/28 207/536/28
g cam-detail3
v -0.437000 -0.437000 1.776225
v -0.437000 0.437000 1.776225
v -0.300000 -0.300000 1.176225
v -0.300000 0.300000 1.176225
v 0.437000 -0.437000 1.776225
v 0.437000 0.437000 1.776225
v 0.300000 -0.300000 1.176225
v 0.300000 0.300000 1.176225
v -0.437000 -0.437000 1.811573
v -0.437000 0.437000 1.811573
v 0.437000 0.437000 1.811573
v 0.437000 -0.437000 1.811573
v -0.303694 -0.303694 1.192403
v -0.303694 0.303694 1.192403
v 0.303694 -0.303694 1.192403
v 0.303694 0.303694 1.192403
vt 0.000000 0.000000
vt 1.000000 0.000000
vt 1.000000 1.000000
vt 0.000000 1.000000
vt 0.000000 0.000000
vt 1.000000 0.000000
vt 1.000000 1.000000
vt 0.000000 1.000000
vt 0.000000 0.000000
vt 1.000000 0.000000
vt 1.000000 1.000000
vt 0.000000 1.000000
vt 0.000000 0.000000
vt 1.000000 0.000000
vt 1.000000 1.000000
vt 0.000000 1.000000
vt 0.000000 0.000000
vt 1.000000 0.000000
vt 1.000000 1.000000
vt 0.000000 1.000000
vt 0.000000 0.000000
vt 1.000000 0.000000
vt 1.000000 1.000000
vt 0.000000 1.000000
vt 0.000000 0.000000
vt 1.000000 0.000000
vt 1.000000 1.000000
vt 0.000000 1.000000
vt 0.000000 0.000000
vt 1.000000 0.000000
vt 1.000000 1.000000
vt 0.000000 1.000000
vn -0.9749 0.0000 -0.2226
vn 1.0000 0.0000 0.0000
vn -1.0000 0.0000 0.0000
vn 0.0000 -1.0000 0.0000
vn 0.0000 1.0000 0.0000
vn 0.0000 0.9749 -0.2226
vn 0.0000 -0.9749 -0.2226
vn 0.9749 0.0000 -0.2226
usemtl Material.003
s off
f 268/537/32 269/538/32 259/539/32 258/540/32
f 260/541/33 261/542/33 266/543/33 267/544/33
f 257/545/34 256/546/34 264/547/34 265/548/34
f 256/549/35 260/550/35 267/551/35 264/552/35
f 261/553/36 257/554/36 265/555/36 266/556/36
f 263/557/37 259/558/37 269/559/37 271/560/37
f 258/561/38 262/562/38 270/563/38 268/564/38
f 262/565/39 263/566/39 271/567/39 270/568/39
g cam-lens2
v -0.361605 -0.387874 1.738093
v -0.361605 0.387874 1.738093
v 0.361605 0.387874 1.738093
v 0.361605 -0.387874 1.738093
vt 0.000000 0.000000
vt 1.000000 0.000000
vt 1.000000 1.000000
vt 0.000000 1.000000
vn 0.0000 0.0000 1.0000
usemtl Material.002
s 1
f 275/569/40 274/570/40 273/571/40 272/572/40
g cam-lens1
v -0.437000 -0.437000 1.776225
v -0.437000 0.437000 1.776225
v -0.300000 -0.300000 1.176225
v -0.300000 0.300000 1.176225
v 0.437000 -0.437000 1.776225
v 0.437000 0.437000 1.776225
v 0.300000 -0.300000 1.176225
v 0.300000 0.300000 1.176225
v -0.437000 -0.437000 1.811573
v -0.437000 0.437000 1.811573
v 0.437000 0.437000 1.811573
v 0.437000 -0.437000 1.811573
v -0.361605 -0.387874 1.811573
v -0.361605 0.387874 1.811573
v 0.361605 0.387874 1.811573
v 0.361605 -0.387874 1.811573
v -0.361605 -0.387874 1.738093
v -0.361605 0.387874 1.738093
v 0.361605 0.387874 1.738093
v 0.361605 -0.387874 1.738093
v -0.303694 -0.303694 1.192403
v -0.303694 0.303694 1.192403
v 0.303694 -0.303694 1.192403
v 0.303694 0.303694 1.192403
vt 0.000000 0.000000
vt 1.000000 0.000000
vt 1.000000 1.000000
vt 0.000000 1.000000
vt 0.000000 0.000000
vt 1.000000 0.000000
vt 1.000000 1.000000
vt 0.000000 1.000000
vt 0.000000 0.000000
vt 1.000000 0.000000
vt 1.000000 1.000000
vt 0.000000 1.000000
vt 0.000000 0.000000
vt 1.000000 0.000000
vt 1.000000 1.000000
vt 0.000000 1.000000
vt 0.000000 0.000000
vt 1.000000 0.000000
vt 1.000000 1.000000
vt 0.000000 1.000000
vt 0.000000 0.000000
vt 1.000000 0.000000
vt 1.000000 1.000000
vt 0.000000 1.000000
vt 0.000000 0.000000
vt 1.000000 0.000000
vt 1.000000 1.000000
vt 0.000000 1.000000
vt 0.000000 0.000000
vt 1.000000 0.000000
vt 1.000000 1.000000
vt 0.000000 1.000000
vt 0.000000 0.000000
vt 1.000000 0.000000
vt 1.000000 1.000000
vt 0.000000 1.000000
vt 0.000000 0.000000
vt 1.000000 0.000000
vt 1.000000 1.000000
vt 0.000000 1.000000
vt 0.000000 0.000000
vt 1.000000 0.000000
vt 1.000000 1.000000
vt 0.000000 1.000000
vt 0.000000 0.000000
vt 1.000000 0.000000
vt 1.000000 1.000000
vt 0.000000 1.000000
vt 0.000000 0.000000
vt 1.000000 0.000000
vt 1.000000 1.000000
vt 0.000000 1.000000
vn 0.0000 0.0000 -1.0000
vn 0.9749 0.0000 -0.2226
vn 0.0000 -0.9749 -0.2226
vn 0.0000 0.9749 -0.2226
vn 0.0000 0.0000 1.0000
vn 1.0000 0.0000 0.0000
vn 0.0000 -1.0000 0.0000
vn -1.0000 0.0000 0.0000
vn 0.0000 1.0000 0.0000
vn -0.9749 0.0000 -0.2226
usemtl Material.001
s off
f 278/573/41 279/574/41 283/575/41 282/576/41
f 298/577/42 299/578/42 281/579/42 280/580/42
f 296/581/43 298/582/43 280/583/43 276/584/43
f 299/585/44 297/586/44 277/587/44 281/588/44
f 284/589/45 287/590/45 291/591/45 288/592/45
f 289/593/46 288/594/46 292/595/46 293/596/46
f 285/597/45 284/598/45 288/599/45 289/600/45
f 286/601/45 285/602/45 289/603/45 290/604/45
f 287/605/45 286/606/45 290/607/45 291/608/45
f 290/609/47 289/610/47 293/611/47 294/612/47
f 291/613/48 290/614/48 294/615/48 295/616/48
f 288/617/49 291/618/49 295/619/49 292/620/49
f 276/621/50 277/622/50 297/623/50 296/624/50
g cam-neck
v 0.000000 0.250000 0.976508
v 0.000000 0.250000 1.226508
v 0.176777 0.176777 0.976508
v 0.176777 0.176777 1.226508
v 0.250000 -0.000000 0.976508
v 0.250000 -0.000000 1.226508
v 0.176777 -0.176777 0.976508
v 0.176777 -0.176777 1.226508
v -0.000000 -0.250000 0.976508
v -0.000000 -0.250000 1.226508
v -0.176777 -0.176777 0.976508
v -0.176777 -0.176777 1.226508
v -0.250000 0.000000 0.976508
v -0.250000 -0.000000 1.226508
v -0.176777 0.176777 0.976508
v -0.176777 0.176777 1.226508
vt 0.000000 0.000000
vt 1.000000 0.000000
vt 1.000000 1.000000
vt 0.000000 1.000000
vt 0.000000 0.000000
vt 1.000000 0.000000
vt 1.000000 1.000000
vt 0.000000 1.000000
vt 0.000000 0.000000
vt 1.000000 0.000000
vt 1.000000 1.000000
vt 0.000000 1.000000
vt 0.000000 0.000000
vt 1.000000 0.000000
vt 1.000000 1.000000
vt 0.000000 1.000000
vt 0.000000 0.000000
vt 1.000000 0.000000
vt 1.000000 1.000000
vt 0.000000 1.000000
vt 0.000000 0.000000
vt 1.000000 0.000000
vt 1.000000 1.000000
vt 0.000000 1.000000
vt 0.500000 1.000000
vt 0.853553 0.853553
vt 1.000000 0.500000
vt 0.853553 0.146447
vt 0.500000 0.000000
vt 0.146447 0.146447
vt 0.000000 0.500000
vt 0.146447 0.853553
vt 0.000000 0.000000
vt 1.000000 0.000000
vt 1.000000 1.000000
vt 0.000000 1.000000
vt 0.000000 0.000000
vt 1.000000 0.000000
vt 1.000000 1.000000
vt 0.000000 1.000000
vt 0.500000 1.000000
vt 0.853553 0.853553
vt 1.000000 0.500000
vt 0.853553 0.146447
vt 0.500000 0.000000
vt 0.146447 0.146447
vt 0.000000 0.500000
vt 0.146447 0.853553
vn 0.3827 0.9239 0.0000
vn 0.9239 0.3827 0.0000
vn 0.9239 -0.3827 -0.0000
vn 0.3827 -0.9239 0.0000
vn -0.3827 -0.9239 0.0000
vn -0.9239 -0.3827 -0.0000
vn -0.0000 0.0000 1.0000
vn -0.9239 0.3827 0.0000
vn -0.3827 0.9239 0.0000
vn 0.0000 0.0000 -1.0000
usemtl Material.003
s off
f 300/625/51 301/626/51 303/627/51 302/628/51
f 302/629/52 303/630/52 305/631/52 304/632/52
f 304/633/53 305/634/53 307/635/53 306/636/53
f 306/637/54 307/638/54 309/639/54 308/640/54
f 308/641/55 309/642/55 311/643/55 310/644/55
f 310/645/56 311/646/56 313/647/56 312/648/56
f 303/649/57 301/650/57 315/651/57 313/652/57 311/653/57 309/654/57 307/655/57 305/656/57
f 312/657/58 313/658/58 315/659/58 314/660/58
f 314/661/59 315/662/59 301/663/59 300/664/59
f 300/665/60 302/666/60 304/667/60 306/668/60 308/669/60 310/670/60 312/671/60 314/672/60
g cam-mic1
v -0.204129 0.326715 -0.432505
v -0.120352 0.435576 -0.542356
v 0.019724 0.457603 -0.564583
v 0.134221 0.425365 -0.532053
v 0.207355 0.312279 -0.417938
v 0.125308 0.202767 -0.307430
v -0.019981 0.173837 -0.278237
v -0.154461 0.222163 -0.327002
v -0.199921 0.713273 0.017584
v -0.177852 0.843758 -0.042555
v -0.091877 0.921163 -0.074751
v 0.040434 0.945054 -0.084619
v 0.177852 0.843758 -0.042555
v 0.199919 0.713246 0.017571
v 0.120797 0.574553 0.070736
v -0.019844 0.542910 0.083810
v -0.134672 0.589183 0.064699
v -0.142590 0.748748 0.358532
v -0.109560 0.839225 0.358559
v -0.027661 0.885053 0.358717
v 0.078632 0.868674 0.358523
v 0.148122 0.735343 0.358723
v 0.071782 0.620508 0.359557
v -0.028021 0.605245 0.359590
v -0.114230 0.657584 0.359377
v 0.094280 0.558952 0.335432
v -0.059280 0.940107 0.323734
v -0.203253 0.742348 0.329796
v 0.159094 0.875678 0.326040
v -0.039370 0.541882 0.335858
v 0.176385 0.646099 0.332856
v 0.203253 0.742399 0.329799
v -0.159094 0.875678 0.326040
v 0.039465 0.947090 0.323072
v -0.156539 0.609723 0.333927
v -0.110339 0.849165 0.384997
v 0.042026 0.884084 0.384844
v 0.129021 0.809901 0.385177
v 0.136741 0.699811 0.385675
v 0.055663 0.611140 0.386080
v -0.064358 0.616516 0.386053
v -0.136741 0.699811 0.385675
vt 0.000000 0.000000
vt 1.000000 0.000000
vt 1.000000 1.000000
vt 0.000000 0.000000
vt 1.000000 0.000000
vt 1.000000 1.000000
vt 0.000000 0.000000
vt 1.000000 0.000000
vt 1.000000 1.000000
vt 0.000000 0.000000
vt 1.000000 0.000000
vt 1.000000 1.000000
vt 0.000000 0.000000
vt 1.000000 0.000000
vt 1.000000 1.000000
vt 0.000000 0.000000
vt 1.000000 0.000000
vt 0.000000 0.000000
vt 1.000000 0.000000
vt 1.000000 1.000000
vt 0.000000 0.000000
vt 1.000000 0.000000
vt 1.000000 1.000000
vt 0.000000 0.000000
vt 1.000000 0.000000
vt 0.000000 0.000000
vt 1.000000 0.000000
vt 1.000000 1.000000
vt 0.000000 0.000000
vt 1.000000 0.000000
vt 1.000000 1.000000
vt 1.000000 0.000000
vt 1.000000 1.000000
vt 0.000000 0.000000
vt 1.000000 0.000000
vt 1.000000 1.000000
vt 0.000000 0.000000
vt 1.000000 1.000000
vt 1.000000 0.000000
vt 1.000000 1.000000
vt 0.000000 0.000000
vt 1.000000 1.000000
vt 0.000000 0.000000
vt 1.000000 0.000000
vt 1.000000 0.000000
vt 1.000000 1.000000
vt 1.000000 0.000000
vt 1.000000 1.000000
vt 0.000000 0.000000
vt 1.000000 0.000000
vt 1.000000 1.000000
vt 0.000000 0.000000
vt 1.000000 0.000000
vt 1.000000 1.000000
vt 0.000000 0.000000
vt 1.000000 0.000000
vt 1.000000 1.000000
vt 0.000000 0.000000
vt 1.000000 1.000000
vt 1.000000 0.000000
vt 1.000000 1.000000
vt 1.000000 0.000000
vt 1.000000 1.000000
vt 1.000000 0.000000
vt 1.000000 0.000000
vt 0.000000 0.000000
vt 1.000000 1.000000
vt 0.000000 1.000000
vt 0.000000 0.000000
vt 1.000000 1.000000
vt 1.000000 0.000000
vt 1.000000 0.000000
vt 0.000000 0.000000
vt 1.000000 1.000000
vt 0.000000 1.000000
vt 0.000000 0.000000
vt 1.000000 0.000000
vt 0.000000 1.000000
vt 1.000000 0.000000
vt 1.000000 1.000000
vt 0.000000 1.000000
vt 0.000000 0.000000
vt 1.000000 1.000000
vt 0.000000 1.000000
vt 0.000000 0.000000
vt 0.000000 1.000000
vt 1.000000 1.000000
vt 0.000000 0.000000
vt 1.000000 0.000000
vt 1.000000 1.000000
vt 1.000000 1.000000
vt 1.000000 0.000000
vt 0.000000 0.000000
vt 1.000000 1.000000
vt 0.000000 0.000000
vt 1.000000 0.000000
vt 0.000000 1.000000
vt 1.000000 0.000000
vt 1.000000 1.000000
vt 1.000000 1.000000
vt 1.000000 1.000000
vt 1.000000 1.000000
vt 1.000000 1.000000
vn -0.8577 0.4726 -0.2023
vn -0.5947 0.5573 -0.5794
vn -0.9962 0.0431 -0.0751
vn 0.2120 0.8978 -0.3859
vn 0.0746 0.6980 -0.7121
vn 0.6872 0.4981 -0.5288
vn 0.8287 0.5145 -0.2202
vn 0.9989 -0.0416 0.0206
vn 0.6244 -0.5557 0.5488
vn 0.6637 -0.6968 0.2719
vn -0.0961 -0.7085 0.6991
vn -0.7335 -0.6300 0.2551
vn -0.7573 -0.4710 0.4523
vn -0.9969 -0.0731 0.0265
vn -0.2773 0.8393 0.4676
vn -0.1455 0.6998 0.6994
vn 0.1961 0.8659 0.4602
vn 0.4378 0.6267 0.6445
vn 0.6844 0.5500 0.4787
vn 0.7048 -0.0199 0.7091
vn 0.8736 0.0349 0.4854
vn 0.7423 -0.4165 0.5249
vn -0.6623 -0.5429 0.5163
vn -0.0984 -0.9228 0.3724
vn -0.1511 -0.8373 0.5254
vn 0.9961 -0.0842 0.0254
vn -0.4348 0.8263 -0.3579
vn -0.6868 0.5466 0.4790
vn -0.8688 -0.0004 0.4951
vn -0.1117 -0.7154 0.6897
vn -0.4629 -0.8803 -0.1039
vn -0.5822 -0.4440 0.6811
vn -0.9552 -0.2889 -0.0639
vn -0.7140 0.0691 0.6967
vn -0.7135 0.6914 -0.1138
vn -0.6894 0.5482 0.4735
vn 0.8321 0.4290 -0.3516
vn 0.8716 -0.4896 0.0246
vn 0.2129 0.9736 -0.0821
vn 0.4813 -0.6341 0.6051
vn 0.3901 -0.7537 0.5288
vn 0.3575 -0.9209 -0.1556
usemtl Material.001
s 1
f 325/673/61 317/674/62 316/675/63
f 327/676/64 318/677/65 317/678/62
f 318/679/65 327/680/64 319/681/66
f 319/682/66 328/683/67 320/684/68
f 321/685/69 330/686/70 322/687/71
f 332/688/72 323/689/73 322/687/71
f 324/690/74 316/691/63 323/692/73
f 342/693/75 335/694/76 349/695/77
f 336/696/78 344/697/79 349/695/77
f 337/698/80 347/699/81 344/700/79
f 347/701/81 337/702/80 346/703/82
f 332/688/72 350/704/83 324/705/74
f 331/706/84 345/707/85 332/708/72
f 346/709/82 330/686/70 329/710/86
f 347/701/81 329/711/86 328/712/67
f 344/713/79 328/683/67 327/714/64
f 326/715/87 342/716/75 327/714/64
f 325/673/61 348/717/88 326/718/87
f 324/690/74 343/719/89 325/720/61
f 339/721/90 356/722/91 340/723/92
f 340/724/92 357/725/93 333/726/94
f 333/727/94 351/728/95 334/729/96
f 334/730/96 351/728/95 335/731/76
f 337/698/80 353/732/97 354/733/98
f 336/696/78 352/734/99 353/735/97
f 324/690/74 325/736/61 316/675/63
f 325/673/61 326/737/87 317/678/62
f 326/715/87 327/680/64 317/678/62
f 319/682/66 327/680/64 328/712/67
f 320/738/68 328/683/67 329/710/86
f 334/730/96 348/717/88 343/739/89 333/740/94
f 322/741/71 330/686/70 331/742/84
f 331/706/84 332/743/72 322/687/71
f 332/688/72 324/744/74 323/692/73
f 335/745/76 342/716/75 348/746/88 334/747/96
f 338/748/100 341/749/101 346/703/82 337/750/80
f 335/745/76 336/751/78 349/695/77
f 336/696/78 337/702/80 344/700/79
f 339/721/90 345/707/85 341/752/101 338/753/100
f 350/754/83 345/707/85 339/755/90 340/756/92
f 343/757/89 350/704/83 340/723/92 333/740/94
f 331/706/84 330/686/70 341/752/101 345/758/85
f 324/690/74 350/704/83 343/739/89
f 332/688/72 345/707/85 350/759/83
f 354/760/98 355/761/102 338/762/100 337/750/80
f 346/709/82 341/749/101 330/763/70
f 347/701/81 346/764/82 329/710/86
f 344/713/79 347/699/81 328/712/67
f 349/765/77 344/697/79 327/714/64
f 327/676/64 342/716/75 349/695/77
f 326/715/87 348/717/88 342/766/75
f 325/673/61 343/719/89 348/746/88
f 330/767/70 321/768/69 320/684/68 329/769/86
f 339/721/90 338/770/100 355/771/102
f 337/698/80 336/751/78 353/735/97
f 339/721/90 355/761/102 356/772/91
f 333/727/94 357/725/93 351/773/95
f 336/696/78 335/694/76 352/774/99
f 340/724/92 356/722/91 357/775/93
f 335/745/76 351/728/95 352/774/99
g cam-lens3
v -0.628254 0.407440 -1.037503
v -0.697274 0.385691 -1.059935
v -0.741355 0.266150 -1.129966
v -0.702420 0.206311 -1.155330
v -0.739436 0.333021 -1.094404
v -0.479575 0.276530 -1.082902
v -0.498864 0.342560 -1.051153
v -0.554289 0.391361 -1.034229
v -0.502545 0.214236 -1.119395
v -0.634994 0.172502 -1.162443
v -0.560484 0.175456 -1.149047
vt 0.500000 1.000000
vt 0.770320 0.920627
vt 0.954816 0.707707
vt 0.994911 0.428843
vt 0.877875 0.172570
vt 0.640866 0.020253
vt 0.359134 0.020254
vt 0.122125 0.172570
vt 0.005089 0.428843
vt 0.045184 0.707708
vt 0.229680 0.920627
vn 0.1392 0.4618 -0.8760
usemtl Material.002
s off
f 358/776/103 365/777/103 364/778/103 363/779/103 366/780/103 368/781/103 367/782/103 361/783/103 360/784/103 362/785/103 359/786/103
g cam-watcher2
v -0.760488 0.258639 -0.770252
v -0.735804 0.340552 -0.925613
v -0.508602 0.239481 -0.822916
v -0.488952 0.304689 -0.946594
v -0.768253 0.035058 -0.877118
v -0.742823 0.119449 -1.037179
v -0.814436 0.185945 -0.796139
v -0.788472 0.272108 -0.959562
v -0.578715 0.290459 -0.786167
v -0.557784 0.359917 -0.917905
v -0.484536 0.160853 -0.865115
v -0.465164 0.225137 -0.987040
v -0.672615 0.297601 -0.766534
v -0.649807 0.373286 -0.910084
v -0.817331 0.102597 -0.835978
v -0.791088 0.189684 -1.001152
v -0.682785 0.004772 -0.906499
v -0.659000 0.083703 -1.056204
v -0.588062 0.021353 -0.914793
v -0.566232 0.093794 -1.052188
v -0.514157 0.079538 -0.899365
v -0.493973 0.146519 -1.026404
vt 0.000000 0.000000
vt 1.000000 0.000000
vt 1.000000 1.000000
vt 0.000000 1.000000
vt 0.000000 0.000000
vt 1.000000 0.000000
vt 1.000000 1.000000
vt 0.000000 1.000000
vt 0.000000 0.000000
vt 1.000000 0.000000
vt 1.000000 1.000000
vt 0.000000 1.000000
vt 0.000000 0.000000
vt 1.000000 0.000000
vt 1.000000 1.000000
vt 0.000000 1.000000
vt 0.000000 0.000000
vt 1.000000 0.000000
vt 1.000000 1.000000
vt 0.000000 1.000000
vt 0.000000 0.000000
vt 1.000000 0.000000
vt 1.000000 1.000000
vt 0.000000 1.000000
vt 0.000000 0.000000
vt 1.000000 0.000000
vt 1.000000 1.000000
vt 0.000000 1.000000
vt 0.000000 0.000000
vt 1.000000 0.000000
vt 1.000000 1.000000
vt 0.000000 1.000000
vt 0.000000 0.000000
vt 1.000000 0.000000
vt 1.000000 1.000000
vt 0.000000 1.000000
vt 0.000000 0.000000
vt 1.000000 0.000000
vt 1.000000 1.000000
vt 0.000000 1.000000
vt 0.000000 0.000000
vt 1.000000 0.000000
vt 1.000000 1.000000
vt 0.000000 1.000000
vn 0.6674 0.6097 0.4275
vn 0.9570 0.1647 0.2389
vn 0.9427 -0.3326 -0.0256
vn 0.6291 -0.7244 -0.2820
vn 0.1158 -0.8861 -0.4488
vn -0.4343 -0.7665 -0.4731
vn -0.8465 -0.4036 -0.3473
vn -0.9899 0.0875 -0.1111
vn -0.8191 0.5508 0.1603
vn -0.3882 0.8392 0.3808
vn 0.1659 0.8612 0.4804
usemtl Material.005
s off
f 371/787/104 372/788/104 378/789/104 377/790/104
f 379/791/105 380/792/105 372/793/105 371/794/105
f 389/795/106 390/796/106 380/797/106 379/798/106
f 387/799/107 388/800/107 390/801/107 389/802/107
f 385/803/108 386/804/108 388/805/108 387/806/108
f 373/807/109 374/808/109 386/809/109 385/810/109
f 383/811/110 384/812/110 374/813/110 373/814/110
f 375/815/111 376/816/111 384/817/111 383/818/111
f 369/819/112 370/820/112 376/821/112 375/822/112
f 381/823/113 382/824/113 370/825/113 369/826/113
f 382/827/114 381/828/114 377/829/114 378/830/114
g cam-watcher1
v -0.330827 0.087677 -0.275223
v -0.394204 0.031443 -0.238516
v -0.431433 -0.053040 -0.236813
v -0.430695 -0.138949 -0.270655
v -0.392223 -0.199010 -0.329298
v -0.328232 -0.214152 -0.394122
v -0.259040 -0.179569 -0.444547
v -0.206613 -0.106240 -0.464563
v -0.187597 -0.017447 -0.447815
v -0.208030 0.058619 -0.399620
v -0.261424 0.097808 -0.335281
v -0.695422 0.221915 -0.622984
v -0.785172 0.176726 -0.614891
v -0.840401 0.099781 -0.632717
v -0.843574 0.015510 -0.670803
v -0.793684 -0.049333 -0.717058
v -0.706570 -0.074159 -0.756794
v -0.609891 -0.051087 -0.777398
v -0.534341 0.012558 -0.772326
v -0.503907 0.096569 -0.743189
v -0.528252 0.174273 -0.699239
v -0.599646 0.221000 -0.654428
v -0.627000 0.448972 -1.053634
v -0.711121 0.422466 -1.080975
v -0.762507 0.358272 -1.122985
v -0.764845 0.276771 -1.166327
v -0.717393 0.203840 -1.197240
v -0.635215 0.162634 -1.205909
v -0.544403 0.166235 -1.189583
v -0.473789 0.213499 -1.153444
v -0.445793 0.289422 -1.108966
v -0.469302 0.369897 -1.070271
v -0.536854 0.429375 -1.049644
v -0.623593 0.422906 -1.066836
v -0.692613 0.401157 -1.089269
v -0.736694 0.281616 -1.159300
v -0.697759 0.221777 -1.184664
v -0.734776 0.348487 -1.123738
v -0.474914 0.291996 -1.112236
v -0.494203 0.358026 -1.080487
v -0.549629 0.406827 -1.063562
v -0.497885 0.229702 -1.148729
v -0.630333 0.187968 -1.191777
v -0.555823 0.190922 -1.178381
v -0.628254 0.407440 -1.037503
v -0.697274 0.385691 -1.059935
v -0.741355 0.266150 -1.129966
v -0.702420 0.206311 -1.155330
v -0.739436 0.333021 -1.094404
v -0.479575 0.276530 -1.082902
v -0.498864 0.342560 -1.051153
v -0.554289 0.391361 -1.034229
v -0.502545 0.214236 -1.119395
v -0.634994 0.172502 -1.162443
v -0.560484 0.175456 -1.149047
v -0.347122 0.098416 -0.502719
v -0.406709 0.140198 -0.445099
v -0.348287 -0.065362 -0.570465
v -0.485187 0.133868 -0.394888
v -0.557639 0.081435 -0.368027
v -0.601062 -0.000454 -0.373044
v -0.408671 -0.135358 -0.559081
v -0.559269 -0.147506 -0.462726
v -0.325343 0.021786 -0.549454
v -0.487322 -0.165981 -0.518918
v -0.601670 -0.085800 -0.408346
v -0.412823 0.086401 -0.533516
v -0.459362 0.118552 -0.492018
v -0.414412 -0.036521 -0.585258
v -0.520908 0.114837 -0.456956
v -0.577920 0.076436 -0.439461
v -0.612298 0.015541 -0.445088
v -0.462036 -0.088265 -0.579074
v -0.580142 -0.095393 -0.511789
v -0.396066 0.028592 -0.568274
v -0.523818 -0.110212 -0.551686
v -0.613126 -0.048514 -0.472051
v -0.760488 0.258639 -0.770252
v -0.735804 0.340552 -0.925613
v -0.508602 0.239481 -0.822916
v -0.488952 0.304689 -0.946594
v -0.768253 0.035058 -0.877118
v -0.742823 0.119449 -1.037179
v -0.814436 0.185945 -0.796139
v -0.788472 0.272108 -0.959562
v -0.578715 0.290459 -0.786167
v -0.557784 0.359917 -0.917905
v -0.484536 0.160853 -0.865115
v -0.465164 0.225137 -0.987040
v -0.672615 0.297601 -0.766534
v -0.649807 0.373286 -0.910084
v -0.817331 0.102597 -0.835978
v -0.791088 0.189684 -1.001152
v -0.682785 0.004772 -0.906499
v -0.659000 0.083703 -1.056204
v -0.588062 0.021353 -0.914793
v -0.566232 0.093794 -1.052188
v -0.514157 0.079538 -0.899365
v -0.493973 0.146519 -1.026404
vt 0.000000 0.000000
vt 1.000000 0.000000
vt 1.000000 1.000000
vt 0.000000 1.000000
vt 0.000000 0.000000
vt 1.000000 0.000000
vt 1.000000 1.000000
vt 0.000000 1.000000
vt 0.000000 0.000000
vt 1.000000 0.000000
vt 1.000000 1.000000
vt 0.000000 1.000000
vt 0.000000 0.000000
vt 1.000000 0.000000
vt 1.000000 1.000000
vt 0.000000 1.000000
vt 0.000000 0.000000
vt 1.000000 0.000000
vt 1.000000 1.000000
vt 0.000000 1.000000
vt 0.000000 0.000000
vt 1.000000 0.000000
vt 1.000000 1.000000
vt 0.000000 1.000000
vt 0.000000 0.000000
vt 1.000000 0.000000
vt 1.000000 1.000000
vt 0.000000 1.000000
vt 0.000000 0.000000
vt 1.000000 0.000000
vt 1.000000 1.000000
vt 0.000000 1.000000
vt 0.000000 0.000000
vt 1.000000 0.000000
vt 1.000000 1.000000
vt 0.000000 1.000000
vt 0.000000 0.000000
vt 1.000000 0.000000
vt 1.000000 1.000000
vt 0.000000 1.000000
vt 0.000000 0.000000
vt 1.000000 0.000000
vt 1.000000 1.000000
vt 0.000000 1.000000
vt 0.000000 0.000000
vt 0.000000 1.000000
vt 0.000000 0.000000
vt 1.000000 0.000000
vt 1.000000 1.000000
vt 0.000000 1.000000
vt 0.000000 0.000000
vt 1.000000 0.000000
vt 1.000000 1.000000
vt 0.000000 1.000000
vt 0.000000 0.000000
vt 1.000000 0.000000
vt 1.000000 1.000000
vt 0.000000 1.000000
vt 0.000000 0.000000
vt 1.000000 0.000000
vt 1.000000 1.000000
vt 0.000000 1.000000
vt 0.000000 0.000000
vt 1.000000 0.000000
vt 1.000000 1.000000
vt 0.000000 1.000000
vt 0.000000 0.000000
vt 1.000000 0.000000
vt 1.000000 1.000000
vt 0.000000 1.000000
vt 0.000000 0.000000
vt 1.000000 0.000000
vt 1.000000 1.000000
vt 0.000000 1.000000
vt 0.000000 0.000000
vt 1.000000 0.000000
vt 1.000000 1.000000
vt 0.000000 1.000000
vt 0.000000 0.000000
vt 1.000000 0.000000
vt 1.000000 1.000000
vt 0.000000 1.000000
vt 0.000000 0.000000
vt 1.000000 0.000000
vt 1.000000 1.000000
vt 0.000000 1.000000
vt 0.000000 0.000000
vt 1.000000 1.000000
vt 0.000000 1.000000
vt 0.000000 0.000000
vt 1.000000 0.000000
vt 1.000000 1.000000
vt 0.000000 1.000000
vt 0.000000 0.000000
vt 1.000000 1.000000
vt 0.000000 1.000000
vt 0.000000 0.000000
vt 1.000000 1.000000
vt 0.000000 1.000000
vt 0.000000 0.000000
vt 1.000000 1.000000
vt 0.000000 1.000000
vt 0.000000 0.000000
vt 1.000000 0.000000
vt 1.000000 1.000000
vt 0.000000 1.000000
vt 0.000000 0.000000
vt 1.000000 1.000000
vt 0.000000 1.000000
vt 0.000000 0.000000
vt 1.000000 1.000000
vt 0.000000 1.000000
vt 0.000000 0.000000
vt 1.000000 1.000000
vt 0.000000 1.000000
vt 0.000000 0.000000
vt 1.000000 1.000000
vt 0.000000 1.000000
vt 0.000000 0.000000
vt 1.000000 1.000000
vt 0.000000 1.000000
vt 0.000000 0.000000
vt 1.000000 1.000000
vt 0.000000 1.000000
vt 0.000000 0.000000
vt 1.000000 0.000000
vt 1.000000 1.000000
vt 0.000000 1.000000
vt 0.000000 0.000000
vt 1.000000 0.000000
vt 1.000000 1.000000
vt 0.000000 1.000000
vt 0.000000 0.000000
vt 1.000000 0.000000
vt 1.000000 1.000000
vt 0.000000 1.000000
vt 0.000000 0.000000
vt 1.000000 0.000000
vt 1.000000 1.000000
vt 0.000000 1.000000
vt 0.000000 0.000000
vt 1.000000 0.000000
vt 1.000000 1.000000
vt 0.000000 1.000000
vt 0.000000 0.000000
vt 1.000000 0.000000
vt 1.000000 1.000000
vt 0.000000 1.000000
vt 0.000000 0.000000
vt 1.000000 0.000000
vt 1.000000 1.000000
vt 0.000000 1.000000
vt 0.000000 0.000000
vt 1.000000 0.000000
vt 1.000000 1.000000
vt 0.000000 1.000000
vt 0.000000 0.000000
vt 1.000000 0.000000
vt 1.000000 1.000000
vt 0.000000 1.000000
vt 0.000000 0.000000
vt 1.000000 0.000000
vt 1.000000 1.000000
vt 0.000000 1.000000
vt 0.000000 0.000000
vt 1.000000 0.000000
vt 1.000000 1.000000
vt 0.000000 1.000000
vt 0.000000 0.000000
vt 1.000000 0.000000
vt 1.000000 1.000000
vt 0.000000 1.000000
vt 0.000000 0.000000
vt 1.000000 0.000000
vt 1.000000 1.000000
vt 0.000000 1.000000
vt 0.000000 0.000000
vt 1.000000 0.000000
vt 1.000000 1.000000
vt 0.000000 1.000000
vt 0.000000 0.000000
vt 1.000000 0.000000
vt 1.000000 1.000000
vt 0.000000 1.000000
vt 0.000000 0.000000
vt 1.000000 0.000000
vt 1.000000 1.000000
vt 0.000000 1.000000
vt 0.000000 0.000000
vt 1.000000 0.000000
vt 1.000000 1.000000
vt 0.000000 1.000000
vt 0.000000 0.000000
vt 1.000000 0.000000
vt 1.000000 1.000000
vt 0.000000 1.000000
vt 0.000000 0.000000
vt 1.000000 0.000000
vt 1.000000 1.000000
vt 0.000000 1.000000
vt 0.000000 0.000000
vt 1.000000 0.000000
vt 1.000000 1.000000
vt 0.000000 1.000000
vt 0.000000 0.000000
vt 1.000000 0.000000
vt 1.000000 1.000000
vt 0.000000 1.000000
vt 0.000000 0.000000
vt 1.000000 0.000000
vt 0.000000 0.000000
vt 1.000000 0.000000
vt 1.000000 1.000000
vt 0.000000 1.000000
vt 0.000000 0.000000
vt 1.000000 0.000000
vt 1.000000 1.000000
vt 0.000000 1.000000
vt 0.000000 0.000000
vt 1.000000 0.000000
vt 1.000000 1.000000
vt 0.000000 1.000000
vt 0.000000 0.000000
vt 1.000000 0.000000
vt 1.000000 1.000000
vt 0.000000 1.000000
vt 0.000000 0.000000
vt 1.000000 0.000000
vt 1.000000 1.000000
vt 0.000000 1.000000
vt 0.000000 0.000000
vt 1.000000 0.000000
vt 1.000000 1.000000
vt 0.000000 1.000000
vt 0.000000 0.000000
vt 1.000000 0.000000
vt 1.000000 1.000000
vt 0.000000 1.000000
vt 0.000000 0.000000
vt 1.000000 0.000000
vt 1.000000 1.000000
vt 0.000000 1.000000
vt 1.000000 1.000000
vt 0.000000 1.000000
vt 0.000000 0.000000
vt 1.000000 0.000000
vt 1.000000 1.000000
vt 0.000000 0.000000
vt 1.000000 0.000000
vt 1.000000 1.000000
vt 0.000000 1.000000
vt 0.000000 0.000000
vt 1.000000 0.000000
vt 1.000000 1.000000
vt 0.000000 1.000000
vt 0.000000 0.000000
vt 1.000000 0.000000
vt 1.000000 1.000000
vt 0.000000 1.000000
vt 0.000000 0.000000
vt 1.000000 0.000000
vt 1.000000 1.000000
vt 0.000000 1.000000
vt 0.000000 0.000000
vt 1.000000 0.000000
vt 1.000000 1.000000
vt 0.000000 1.000000
vt 0.000000 0.000000
vt 1.000000 0.000000
vt 1.000000 1.000000
vt 0.000000 1.000000
vt 0.000000 0.000000
vt 1.000000 0.000000
vt 1.000000 1.000000
vt 0.000000 1.000000
vt 0.000000 0.000000
vt 1.000000 0.000000
vt 1.000000 1.000000
vt 0.000000 1.000000
vt 1.000000 0.000000
vt 1.000000 1.000000
vt 0.000000 1.000000
vt 1.000000 0.000000
vt 1.000000 1.000000
vt 0.000000 1.000000
vn -0.2610 0.9352 0.2393
vn -0.0818 0.8909 0.4467
vn 0.2770 0.9608 0.0021
vn 0.1100 0.9828 -0.1479
vn -0.2364 0.9354 0.2630
vn -0.1519 0.8360 0.5272
vn -0.6042 0.5819 0.5443
vn -0.6214 0.6092 0.4926
vn -0.8947 0.1379 0.4248
vn -0.8541 0.0988 0.5106
vn -0.9072 -0.3760 0.1887
vn -0.8512 -0.4269 0.3052
vn -0.6269 -0.7747 -0.0824
vn -0.6125 -0.7885 -0.0548
vn -0.1719 -0.9394 -0.2964
vn -0.2220 -0.8672 -0.4458
vn 0.3277 -0.8531 -0.4059
vn 0.1878 -0.6469 -0.7391
vn 0.7680 -0.5153 -0.3802
vn 0.4874 -0.2098 -0.8475
vn 0.9817 0.0368 -0.1867
vn 0.5920 0.3039 -0.7464
vn 0.8079 0.5773 0.1181
vn 0.4761 0.7436 -0.4695
vn 0.3583 0.8520 0.3817
vn 0.1714 0.9805 -0.0962
vn -0.0635 0.8869 0.4575
vn 0.4749 0.7451 0.4683
vn -0.1424 0.8847 0.4438
vn 0.0022 0.9739 -0.2269
vn -0.3884 0.8508 -0.3538
vn -0.6467 0.7123 0.2728
vn -0.6270 0.5528 -0.5489
vn -0.9461 0.3231 0.0200
vn -0.6379 0.1743 -0.7501
vn -0.9580 -0.1612 -0.2372
vn -0.4175 -0.1643 -0.8937
vn -0.6806 -0.5979 -0.4234
vn -0.0360 -0.3556 -0.9339
vn -0.1915 -0.8553 -0.4814
vn 0.3857 -0.3389 -0.8581
vn 0.3645 -0.8463 -0.3883
vn 0.7136 -0.1194 -0.6903
vn 0.8093 -0.5628 -0.1682
vn 0.8436 0.2331 -0.4838
vn 0.9898 -0.0908 0.1093
vn 0.7344 0.6067 -0.3041
vn 0.8408 0.4122 0.3509
vn 0.4207 0.8829 -0.2083
vn 0.4141 0.7764 0.4751
vn 0.7022 0.1489 -0.6962
vn 0.7112 0.4624 -0.5295
vn -0.1657 -0.1246 -0.9783
vn -0.4255 0.1042 -0.8989
vn -0.8465 -0.4035 -0.3472
vn -0.4342 -0.7665 -0.4731
vn -0.5159 0.4137 -0.7501
vn 0.5287 0.7429 -0.4106
vn -0.1366 0.8875 -0.4400
vn -0.4082 0.7057 -0.5790
vn 0.1810 -0.1999 -0.9629
vn 0.2126 0.9014 -0.3772
vn 0.5046 -0.0980 -0.8578
vn 0.9570 0.1647 0.2389
vn 0.6674 0.6097 0.4275
vn 0.1158 -0.8861 -0.4488
vn 0.9427 -0.3326 -0.0256
vn 0.6291 -0.7243 -0.2819
vn 0.1659 0.8612 0.4804
vn -0.3882 0.8392 0.3808
vn -0.8191 0.5508 0.1603
vn -0.9899 0.0875 -0.1111
vn 0.5304 0.7291 -0.4325
vn 0.3750 0.7543 -0.5388
vn 0.6220 0.2930 -0.7261
vn 0.4733 0.3325 -0.8157
vn 0.5399 -0.2287 -0.8100
vn 0.3874 -0.1680 -0.9065
vn 0.2906 -0.6998 -0.6526
vn 0.1265 -0.6112 -0.7812
vn -0.0687 -0.9564 -0.2839
vn -0.2485 -0.8488 -0.4668
vn -0.4149 -0.8928 0.1751
vn -0.6177 -0.7844 -0.0569
vn -0.6234 -0.5361 0.5691
vn -0.8467 -0.4289 0.3147
vn -0.6270 -0.0093 0.7790
vn -0.8479 0.0964 0.5212
vn -0.4246 0.5244 0.7380
vn -0.6234 0.6077 0.4919
vn 0.8584 0.3848 0.3393
vn 0.9901 -0.0803 0.1150
vn 0.8389 -0.5249 -0.1435
vn 0.4348 -0.8232 -0.3650
vn -0.1166 -0.8708 -0.4776
vn -0.6423 -0.6312 -0.4348
vn -0.9551 -0.1711 -0.2419
vn -0.9360 0.3501 0.0359
vn -0.5951 0.7460 0.2988
usemtl Material.003
s 1
f 449/831/115 391/832/116 401/833/117 447/834/118
f 460/835/119 402/836/120 403/837/121 461/838/122
f 461/839/122 403/840/121 404/841/123 462/842/124
f 462/843/124 404/844/123 405/845/125 467/846/126
f 467/847/126 405/848/125 406/849/127 464/850/128
f 464/851/128 406/852/127 407/853/129 466/854/130
f 466/855/130 407/856/129 408/857/131 463/858/132
f 463/859/132 408/860/131 409/861/133 459/862/134
f 459/863/134 409/864/133 410/865/135 465/866/136
f 465/867/136 410/868/135 411/869/137 457/870/138
f 457/871/138 411/872/137 412/873/139 458/874/140
f 480/875/141 402/836/120 412/873/139 476/876/142
f 481/877/143 413/878/144 414/879/145 469/880/146
f 469/881/146 414/882/145 415/883/147 475/884/148
f 475/885/148 415/886/147 416/887/149 483/888/150
f 483/889/150 416/890/149 417/891/151 473/892/152
f 473/893/152 417/894/151 418/895/153 485/896/154
f 485/897/154 418/898/153 419/899/155 487/900/156
f 487/901/156 419/902/155 420/903/157 489/904/158
f 489/905/158 420/906/157 421/907/159 479/908/160
f 479/909/160 421/910/159 422/911/161 471/912/162
f 471/913/162 422/914/161 423/915/163 477/916/164
f 416/917/149 415/886/147 428/918/165 426/919/166
f 431/920/167 430/921/168 441/922/169 442/923/170
f 422/924/161 421/910/159 429/925/171 430/926/168
f 417/927/151 416/890/149 426/928/166 427/929/172
f 420/930/157 419/902/155 434/931/173 432/932/174
f 413/933/144 423/934/163 431/935/167 424/936/175
f 419/937/155 418/898/153 433/938/176 434/939/173
f 415/940/147 414/882/145 425/941/177 428/942/165
f 421/943/159 420/906/157 432/944/174 429/945/171
f 414/946/145 413/878/144 424/947/175 425/948/177
f 423/949/163 422/914/161 430/950/168 431/951/167
f 418/952/153 417/894/151 427/953/172 433/954/176
f 427/955/172 426/956/166 437/957/178 438/958/179
f 424/959/175 431/960/167 442/961/170 435/962/180
f 426/963/166 428/964/165 439/965/181 437/966/178
f 428/967/165 425/968/177 436/969/182 439/970/181
f 434/971/173 433/972/176 444/973/183 445/974/184
f 429/975/171 432/976/174 443/977/185 440/978/186
f 430/979/168 429/980/171 440/981/186 441/982/169
f 432/983/174 434/984/173 445/985/184 443/986/185
f 425/987/177 424/988/175 435/989/180 436/990/182
f 433/991/176 427/992/172 438/993/179 444/994/183
f 400/995/187 446/996/188 447/997/118 401/998/117
f 399/999/189 454/1000/190 446/1001/188 400/1002/187
f 398/1003/191 448/1004/192 454/1005/190 399/1006/189
f 397/1007/193 452/1008/194 448/1009/192 398/1010/191
f 396/1011/195 455/1012/196 452/1013/194 397/1014/193
f 395/1015/197 453/1016/198 455/1017/196 396/1018/195
f 394/1019/199 456/1020/200 453/1021/198 395/1022/197
f 393/1023/201 451/1024/202 456/1025/200 394/1026/199
f 392/1027/203 450/1028/204 451/1029/202 393/1030/201
f 391/1031/116 449/1032/115 450/1033/204 392/1034/203
f 460/835/119 449/1032/115 447/997/118 458/874/140
f 402/1035/120 460/1036/119 458/1037/140 412/1038/139
f 446/1039/188 457/1040/138 458/1037/140 447/834/118
f 454/1041/190 465/1042/136 457/1043/138 446/1044/188
f 448/1045/192 459/1046/134 465/1047/136 454/1048/190
f 452/1049/194 463/1050/132 459/1051/134 448/1052/192
f 455/1053/196 466/1054/130 463/1055/132 452/1056/194
f 453/1057/198 464/1058/128 466/1059/130 455/1060/196
f 456/1061/200 467/1062/126 464/1063/128 453/1064/198
f 451/1065/202 462/1066/124 467/1067/126 456/1068/200
f 450/1069/204 461/1070/122 462/1071/124 451/1072/202
f 449/831/115 460/1036/119 461/1073/122 450/1074/204
f 411/1075/137 470/1076/205 476/1077/142 412/1038/139
f 410/1078/135 478/1079/206 470/1080/205 411/1081/137
f 409/1082/133 488/1083/207 478/1084/206 410/1085/135
f 408/1086/131 486/1087/208 488/1088/207 409/1089/133
f 407/1090/129 484/1091/209 486/1092/208 408/1093/131
f 406/1094/127 472/1095/210 484/1096/209 407/1097/129
f 405/1098/125 482/1099/211 472/1100/210 406/1101/127
f 404/1102/123 474/1103/212 482/1104/211 405/1105/125
f 403/1106/121 468/1107/213 474/1108/212 404/1109/123
f 402/1035/120 480/1110/141 468/1111/213 403/1112/121
f 413/933/144 481/1113/143 477/1114/164 423/1115/163
g cam-mic2
v -0.140736 0.759500 0.336157
v -0.124679 0.812296 0.335917
v -0.089638 0.854931 0.335724
v -0.040946 0.880908 0.335606
v 0.013841 0.886050 0.335716
v 0.066572 0.870317 0.335654
v 0.109259 0.835338 0.335813
v 0.135308 0.786689 0.336034
v 0.140755 0.731776 0.336283
v 0.124774 0.678961 0.336523
v 0.089800 0.636284 0.336717
v 0.041159 0.610238 0.336835
v -0.013878 0.604624 0.336761
v -0.066762 0.620865 0.336787
v -0.109388 0.655899 0.336628
v -0.135365 0.704581 0.336407
v -0.156847 0.830280 0.392548
v -0.082131 0.900174 0.392667
v -0.000000 0.921412 0.390743
v 0.112482 0.883849 0.392305
v 0.177338 0.763812 0.392848
v 0.138322 0.633068 0.393439
v 0.034517 0.572018 0.395845
v -0.084751 0.588696 0.393639
v -0.170833 0.694560 0.393161
v -0.177321 0.727067 0.903566
v -0.138449 0.857857 0.902975
v -0.034517 0.919060 0.900850
v 0.084927 0.902289 0.902775
v 0.170893 0.796327 0.903253
v 0.156757 0.660620 0.903867
v 0.000000 0.569658 0.905469
v -0.112331 0.607099 0.904109
v -0.151965 0.729017 0.939682
v -0.119135 0.841313 0.939174
v 0.146719 0.788429 0.939413
v 0.134076 0.672123 0.939939
v 0.080377 0.593875 0.916322
v -0.011897 0.614021 0.959324
v -0.095779 0.626407 0.940147
v -0.117004 0.778192 0.962139
v -0.059638 0.851365 0.961807
v -0.014026 0.880967 0.956340
v 0.077934 0.857495 0.957144
v 0.120593 0.730929 0.962353
v 0.074946 0.649940 0.962720
v -0.105823 0.685894 0.962557
v 0.020057 0.775533 0.981963
v -0.019743 0.715963 0.982313
vt 0.000000 0.000000
vt 1.000000 0.000000
vt 1.000000 1.000000
vt 0.000000 0.000000
vt 1.000000 0.000000
vt 1.000000 1.000000
vt 0.000000 0.000000
vt 1.000000 1.000000
vt 0.000000 0.000000
vt 1.000000 0.000000
vt 1.000000 1.000000
vt 0.000000 0.000000
vt 1.000000 0.000000
vt 1.000000 1.000000
vt 0.000000 0.000000
vt 1.000000 0.000000
vt 1.000000 1.000000
vt 0.000000 0.000000
vt 1.000000 1.000000
vt 0.000000 0.000000
vt 1.000000 1.000000
vt 0.000000 0.000000
vt 1.000000 0.000000
vt 1.000000 1.000000
vt 0.000000 0.000000
vt 1.000000 0.000000
vt 1.000000 1.000000
vt 0.000000 0.000000
vt 1.000000 0.000000
vt 1.000000 1.000000
vt 0.000000 0.000000
vt 1.000000 0.000000
vt 1.000000 1.000000
vt 1.000000 0.000000
vt 1.000000 1.000000
vt 0.000000 0.000000
vt 1.000000 0.000000
vt 1.000000 1.000000
vt 0.000000 0.000000
vt 1.000000 0.000000
vt 1.000000 1.000000
vt 0.000000 0.000000
vt 1.000000 1.000000
vt 0.000000 0.000000
vt 1.000000 0.000000
vt 1.000000 1.000000
vt 0.000000 0.000000
vt 1.000000 0.000000
vt 1.000000 1.000000
vt 0.000000 0.000000
vt 1.000000 1.000000
vt 1.000000 0.000000
vt 1.000000 1.000000
vt 0.000000 1.000000
vt 0.000000 0.000000
vt 1.000000 0.000000
vt 1.000000 1.000000
vt 0.000000 0.000000
vt 1.000000 0.000000
vt 1.000000 1.000000
vt 0.000000 0.000000
vt 1.000000 0.000000
vt 1.000000 1.000000
vt 0.000000 0.000000
vt 1.000000 0.000000
vt 1.000000 1.000000
vt 0.000000 0.000000
vt 1.000000 0.000000
vt 1.000000 1.000000
vt 0.000000 0.000000
vt 1.000000 0.000000
vt 1.000000 1.000000
vt 0.000000 0.000000
vt 1.000000 1.000000
vt 0.000000 0.000000
vt 1.000000 0.000000
vt 1.000000 0.000000
vt 1.000000 1.000000
vt 0.000000 1.000000
vt 0.000000 0.000000
vt 1.000000 0.000000
vt 1.000000 1.000000
vt 1.000000 0.000000
vt 1.000000 1.000000
vt 0.000000 1.000000
vt 1.000000 0.000000
vt 1.000000 1.000000
vt 0.000000 1.000000
vt 1.000000 1.000000
vt 0.000000 1.000000
vt 0.000000 0.000000
vt 1.000000 0.000000
vt 1.000000 1.000000
vt 1.000000 0.000000
vt 1.000000 1.000000
vt 0.000000 0.000000
vt 1.000000 0.000000
vt 1.000000 1.000000
vt 1.000000 1.000000
vt 1.000000 1.000000
vt 1.000000 1.000000
vt 0.000000 1.000000
vt 0.000000 0.000000
vt 1.000000 0.000000
vt 0.000000 1.000000
vt 0.000000 0.000000
vt 0.000000 1.000000
vt 0.000000 1.000000
vt 1.000000 0.000000
vt 0.000000 1.000000
vt 0.000000 0.000000
vt 1.000000 1.000000
vt 0.000000 1.000000
vt 0.000000 0.000000
vt 0.000000 1.000000
vt 1.000000 0.000000
vt 1.000000 1.000000
vt 0.000000 1.000000
vt 1.000000 0.000000
vt 1.000000 1.000000
vt 0.000000 0.000000
vt 1.000000 0.000000
vt 1.000000 1.000000
vn -0.7403 0.3930 -0.5453
vn -0.8647 0.4372 -0.2472
vn -0.5522 0.6634 -0.5049
vn -0.2483 0.8176 -0.5194
vn 0.0298 0.9669 -0.2532
vn 0.1299 0.8548 -0.5025
vn -0.8820 0.0869 -0.4631
vn -0.6856 -0.5621 -0.4625
vn -0.9299 -0.2784 -0.2403
vn -0.8019 -0.2459 -0.5445
vn -0.4668 0.8500 -0.2440
vn -0.0902 -0.8724 -0.4803
vn -0.4715 -0.8477 -0.2429
vn -0.3957 -0.7400 -0.5439
vn -0.1881 0.9330 0.3069
vn 0.4584 0.8372 0.2981
vn -0.9519 -0.0970 0.2907
vn 0.6210 0.7430 -0.2494
vn 0.9176 0.2745 0.2875
vn 0.1941 -0.9529 -0.2329
vn -0.0215 -0.9508 0.3090
vn 0.4343 -0.8099 0.3943
vn 0.7581 -0.6034 -0.2472
vn 0.8587 -0.4288 0.2805
vn -0.6149 -0.7313 0.2950
vn 0.9646 0.0985 -0.2445
vn -0.7458 0.5925 0.3045
vn -0.0589 -0.5567 0.8285
vn 0.8204 0.3091 -0.4809
vn 0.7133 0.5102 -0.4804
vn 0.6456 -0.3164 0.6951
vn 0.4698 -0.0425 0.8817
vn 0.2760 -0.3679 0.8879
vn 0.6838 0.2057 0.7000
vn 0.3485 0.4867 0.8010
vn -0.7246 -0.0775 0.6848
vn -0.4568 0.1366 0.8790
vn -0.5630 0.4502 0.6930
vn -0.4546 -0.5502 0.7004
vn -0.4212 -0.2380 0.8751
vn -0.2511 0.4135 0.8751
vn -0.0607 0.6010 0.7969
vn -0.0514 -0.0759 0.9958
vn 0.0614 0.0884 0.9942
vn 0.7990 -0.3617 -0.4803
vn 0.8655 -0.1439 -0.4798
vn 0.3699 0.7819 -0.5018
vn 0.2944 -0.8214 -0.4884
vn 0.5160 -0.7002 -0.4934
usemtl Material.004
s 1
f 491/1116/214 506/1117/215 492/1118/216
f 493/1119/217 508/1120/218 494/1121/219
f 490/1122/220 506/1117/215 491/1123/214
f 504/1124/221 514/1125/222 505/1126/223
f 492/1127/216 507/1128/224 493/1129/217
f 502/1130/225 513/1131/226 503/1132/227
f 505/1133/223 514/1125/222 490/1134/220
f 503/1135/227 513/1131/226 504/1136/221
f 508/1137/218 517/1138/228 518/1139/229
f 514/1140/222 515/1141/230 506/1142/215
f 509/1143/231 518/1144/229 519/1145/232
f 512/1146/233 521/1147/234 513/1148/226
f 512/1146/233 527/1149/235 521/1150/234
f 511/1151/236 520/1152/237 527/1153/235
f 513/1154/226 522/1155/238 514/1156/222
f 507/1157/224 517/1138/228 508/1158/218
f 510/1159/239 519/1160/232 520/1161/237
f 506/1162/215 516/1163/240 507/1164/224
f 521/1165/234 527/1149/235 528/1166/241
f 509/1143/231 510/1167/239 497/1168/242 496/1169/243
f 526/1170/244 534/1171/245 535/1172/246
f 525/1173/247 533/1174/248 534/1175/245
f 523/1176/249 530/1177/250 524/1178/251
f 529/1179/252 536/1180/253 523/1181/249
f 524/1182/251 531/1183/254 532/1184/255
f 536/1185/253 538/1186/256 530/1187/250
f 528/1188/241 538/1186/256 536/1189/253
f 531/1190/254 537/1191/257 532/1184/255
f 493/1119/217 507/1128/224 508/1158/218
f 510/1159/239 511/1192/236 499/1193/258 498/1194/259
f 498/1195/259 497/1196/242 510/1197/239
f 492/1127/216 506/1117/215 507/1164/224
f 508/1137/218 509/1198/231 495/1199/260 494/1200/219
f 511/1151/236 512/1201/233 501/1202/261 500/1203/262
f 524/1182/251 516/1163/240 515/1204/230 523/1205/249
f 490/1122/220 514/1125/222 506/1142/215
f 496/1206/243 495/1207/260 509/1208/231
f 502/1130/225 501/1209/261 512/1210/233
f 502/1130/225 512/1201/233 513/1148/226
f 500/1211/262 499/1212/258 511/1213/236
f 504/1124/221 513/1131/226 514/1156/222
f 511/1151/236 510/1167/239 520/1161/237
f 509/1143/231 508/1120/218 518/1139/229
f 512/1146/233 511/1192/236 527/1153/235
f 506/1162/215 515/1141/230 516/1214/240
f 514/1140/222 522/1155/238 515/1204/230
f 507/1157/224 516/1163/240 517/1215/228
f 513/1154/226 521/1147/234 522/1216/238
f 510/1159/239 509/1198/231 519/1145/232
f 523/1176/249 515/1141/230 522/1216/238 529/1217/252
f 533/1218/248 525/1219/247 519/1145/232 518/1220/229
f 532/1221/255 517/1138/228 516/1214/240 524/1222/251
f 529/1179/252 522/1155/238 521/1150/234 528/1223/241
f 525/1173/247 526/1224/244 520/1161/237 519/1225/232
f 527/1226/235 520/1152/237 526/1227/244
f 532/1221/255 533/1174/248 518/1139/229 517/1228/228
f 537/1229/257 531/1183/254 530/1187/250 538/1230/256
f 528/1188/241 527/1149/235 535/1172/246
f 527/1226/235 526/1224/244 535/1172/246
f 523/1176/249 536/1180/253 530/1187/250
f 529/1179/252 528/1231/241 536/1189/253
f 524/1182/251 530/1177/250 531/1232/254
f 526/1170/244 525/1219/247 534/1175/245
f 537/1229/257 538/1186/256 535/1172/246 534/1233/245
f 533/1218/248 532/1234/255 537/1235/257
f 534/1236/245 533/1174/248 537/1235/257
f 528/1188/241 535/1237/246 538/1238/256
g cam-light
v 0.232295 0.155980 1.734328
v 0.287203 0.197926 1.774221
v 0.211322 0.197926 1.798877
v 0.164425 0.197926 1.734328
v 0.211322 0.197926 1.669780
v 0.287203 0.197926 1.694435
v 0.253268 0.265797 1.798877
v 0.177387 0.265797 1.774221
v 0.177387 0.265797 1.694435
v 0.253268 0.265797 1.669780
v 0.300165 0.265797 1.734328
v 0.232295 0.307743 1.734328
v 0.219968 0.167313 1.772268
v 0.264569 0.167313 1.757776
v 0.252242 0.191968 1.795717
v 0.296843 0.191968 1.734328
v 0.264569 0.167313 1.710880
v 0.192402 0.167313 1.734328
v 0.180074 0.191968 1.772269
v 0.219968 0.167313 1.696388
v 0.180074 0.191968 1.696388
v 0.252242 0.191968 1.672939
v 0.304462 0.231862 1.757776
v 0.304462 0.231862 1.710880
v 0.232295 0.231862 1.810209
v 0.276897 0.231862 1.795717
v 0.160127 0.231862 1.757776
v 0.187693 0.231862 1.795717
v 0.187693 0.231862 1.672939
v 0.160127 0.231862 1.710880
v 0.276897 0.231862 1.672939
v 0.232295 0.231862 1.658447
v 0.284516 0.271755 1.772269
v 0.212348 0.271755 1.795717
v 0.167747 0.271755 1.734328
v 0.212348 0.271755 1.672939
v 0.284516 0.271755 1.696388
v 0.244622 0.296410 1.772268
v 0.272188 0.296410 1.734328
v 0.200021 0.296410 1.757776
v 0.200021 0.296410 1.710880
v 0.244622 0.296410 1.696388
vt 0.000000 0.000000
vt 1.000000 0.000000
vt 1.000000 1.000000
vt 0.000000 0.000000
vt 1.000000 1.000000
vt 1.000000 0.000000
vt 1.000000 1.000000
vt 1.000000 0.000000
vt 1.000000 1.000000
vt 1.000000 0.000000
vt 1.000000 1.000000
vt 1.000000 0.000000
vt 1.000000 1.000000
vt 0.000000 0.000000
vt 1.000000 0.000000
vt 1.000000 1.000000
vt 0.000000 0.000000
vt 1.000000 0.000000
vt 1.000000 1.000000
vt 0.000000 0.000000
vt 1.000000 0.000000
vt 1.000000 1.000000
vt 0.000000 0.000000
vt 1.000000 0.000000
vt 1.000000 1.000000
vt 1.000000 0.000000
vt 1.000000 1.000000
vt 1.000000 0.000000
vt 1.000000 1.000000
vt 1.000000 0.000000
vt 1.000000 1.000000
vt 1.000000 0.000000
vt 1.000000 1.000000
vt 1.000000 0.000000
vt 1.000000 1.000000
vt 0.000000 0.000000
vt 1.000000 0.000000
vt 1.000000 1.000000
vt 0.000000 0.000000
vt 1.000000 0.000000
vt 1.000000 1.000000
vt 0.000000 0.000000
vt 1.000000 0.000000
vt 1.000000 1.000000
vt 0.000000 0.000000
vt 1.000000 0.000000
vt 1.000000 1.000000
vt 0.000000 0.000000
vt 1.000000 0.000000
vt 1.000000 1.000000
vt 0.000000 0.000000
vt 1.000000 0.000000
vt 1.000000 1.000000
vt 0.000000 0.000000
vt 1.000000 0.000000
vt 0.000000 0.000000
vt 1.000000 0.000000
vt 0.000000 0.000000
vt 1.000000 0.000000
vt 0.000000 0.000000
vt 1.000000 0.000000
vt 0.000000 0.000000
vt 1.000000 0.000000
vt 0.000000 0.000000
vt 1.000000 0.000000
vt 0.000000 0.000000
vt 1.000000 0.000000
vt 0.000000 0.000000
vt 1.000000 0.000000
vt 0.000000 0.000000
vt 1.000000 0.000000
vt 0.000000 0.000000
vt 1.000000 1.000000
vt 1.000000 1.000000
vt 0.000000 0.000000
vt 0.000000 0.000000
vt 1.000000 1.000000
vt 1.000000 1.000000
vt 0.000000 0.000000
vt 0.000000 0.000000
vt 1.000000 1.000000
vt 1.000000 1.000000
vt 0.000000 0.000000
vt 0.000000 0.000000
vt 1.000000 1.000000
vt 1.000000 1.000000
vt 0.000000 0.000000
vt 0.000000 0.000000
vt 1.000000 1.000000
vt 1.000000 1.000000
vt 0.000000 0.000000
vt 1.000000 0.000000
vt 0.000000 0.000000
vt 1.000000 0.000000
vt 1.000000 0.000000
vt 0.000000 0.000000
vt 1.000000 0.000000
vt 1.000000 0.000000
vt 0.000000 0.000000
vt 1.000000 0.000000
vt 1.000000 0.000000
vt 0.000000 0.000000
vt 1.000000 0.000000
vt 1.000000 0.000000
vt 0.000000 0.000000
vt 1.000000 0.000000
vt 0.000000 0.000000
vt 1.000000 1.000000
vt 1.000000 1.000000
vt 0.000000 0.000000
vt 1.000000 1.000000
vt 1.000000 1.000000
vt 0.000000 0.000000
vt 1.000000 1.000000
vt 1.000000 1.000000
vt 0.000000 0.000000
vt 1.000000 0.000000
vt 0.000000 0.000000
vt 1.000000 0.000000
vt 1.000000 1.000000
vt 1.000000 1.000000
vn 0.0000 -1.0000 0.0000
vn 0.4253 -0.8506 0.3090
vn -0.1625 -0.8506 0.5000
vn 0.7236 -0.4472 0.5257
vn 0.8506 -0.5257 0.0000
vn -0.5257 -0.8506 0.0000
vn -0.1625 -0.8506 -0.5000
vn 0.4253 -0.8506 -0.3090
vn 0.9510 0.0000 0.3090
vn -0.2764 -0.4472 0.8506
vn 0.2629 -0.5257 0.8090
vn 0.0000 0.0000 1.0000
vn -0.8944 -0.4472 0.0000
vn -0.6882 -0.5257 0.5000
vn -0.9510 0.0000 0.3090
vn -0.2764 -0.4472 -0.8506
vn -0.6882 -0.5257 -0.5000
vn -0.5878 0.0000 -0.8090
vn 0.7236 -0.4472 -0.5257
vn 0.2629 -0.5257 -0.8090
vn 0.5878 0.0000 -0.8090
vn 0.5878 0.0000 0.8090
vn -0.5878 0.0000 0.8090
vn -0.9510 0.0000 -0.3090
vn 0.0000 0.0000 -1.0000
vn 0.9510 0.0000 -0.3090
vn 0.2764 0.4472 0.8506
vn 0.6882 0.5257 0.5000
vn 0.1625 0.8506 0.5000
vn -0.7236 0.4472 0.5257
vn -0.2629 0.5257 0.8090
vn -0.4253 0.8506 0.3090
vn -0.7236 0.4472 -0.5257
vn -0.8506 0.5257 0.0000
vn -0.4253 0.8506 -0.3090
vn 0.2764 0.4472 -0.8506
vn -0.2629 0.5257 -0.8090
vn 0.1625 0.8506 -0.5000
vn 0.8944 0.4472 0.0000
vn 0.6882 0.5257 -0.5000
vn 0.5257 0.8506 0.0000
vn 0.0000 1.0000 0.0000
usemtl Material.008
s 1
f 539/1239/263 552/1240/264 551/1241/265
f 540/1242/266 552/1240/264 554/1243/267
f 539/1239/263 551/1244/265 556/1245/268
f 539/1239/263 556/1246/268 558/1247/269
f 539/1239/263 558/1248/269 555/1249/270
f 540/1242/266 554/1250/267 561/1251/271
f 541/1252/272 553/1253/273 563/1254/274
f 542/1255/275 557/1256/276 565/1257/277
f 543/1258/278 559/1259/279 567/1260/280
f 544/1261/281 560/1262/282 569/1263/283
f 540/1242/266 561/1264/271 564/1265/284
f 541/1252/272 563/1266/274 566/1267/285
f 542/1255/275 565/1268/277 568/1269/286
f 543/1258/278 567/1270/280 570/1271/287
f 544/1261/281 569/1272/283 562/1273/288
f 545/1274/289 571/1275/290 576/1276/291
f 546/1277/292 572/1278/293 578/1279/294
f 547/1280/295 573/1281/296 579/1282/297
f 548/1283/298 574/1284/299 580/1285/300
f 549/1286/301 575/1287/302 577/1288/303
f 577/1289/303 580/1290/300 550/1291/304
f 577/1289/303 575/1287/302 580/1285/300
f 575/1292/302 548/1293/298 580/1285/300
f 580/1294/300 579/1295/297 550/1291/304
f 580/1294/300 574/1284/299 579/1282/297
f 574/1296/299 547/1297/295 579/1282/297
f 579/1298/297 578/1299/294 550/1291/304
f 579/1298/297 573/1281/296 578/1279/294
f 573/1300/296 546/1301/292 578/1279/294
f 578/1302/294 576/1303/291 550/1291/304
f 578/1302/294 572/1278/293 576/1276/291
f 572/1304/293 545/1305/289 576/1276/291
f 576/1306/291 577/1307/303 550/1291/304
f 576/1306/291 571/1275/290 577/1288/303
f 571/1308/290 549/1309/301 577/1288/303
f 562/1310/288 575/1287/302 549/1311/301
f 562/1310/288 569/1272/283 575/1312/302
f 569/1313/283 548/1293/298 575/1312/302
f 570/1314/287 574/1284/299 548/1315/298
f 570/1314/287 567/1270/280 574/1316/299
f 567/1317/280 547/1297/295 574/1316/299
f 568/1318/286 573/1281/296 547/1319/295
f 568/1318/286 565/1268/277 573/1320/296
f 565/1321/277 546/1301/292 573/1320/296
f 566/1322/285 572/1278/293 546/1323/292
f 566/1322/285 563/1266/274 572/1324/293
f 563/1325/274 545/1305/289 572/1324/293
f 564/1326/284 571/1275/290 545/1327/289
f 564/1326/284 561/1264/271 571/1328/290
f 561/1329/271 549/1309/301 571/1328/290
f 569/1313/283 570/1330/287 548/1315/298
f 569/1313/283 560/1262/282 570/1271/287
f 560/1331/282 543/1332/278 570/1271/287
f 567/1317/280 568/1333/286 547/1319/295
f 567/1317/280 559/1259/279 568/1269/286
f 559/1334/279 542/1335/275 568/1269/286
f 565/1321/277 566/1336/285 546/1323/292
f 565/1321/277 557/1256/276 566/1267/285
f 557/1337/276 541/1338/272 566/1267/285
f 563/1325/274 564/1339/284 545/1327/289
f 563/1325/274 553/1253/273 564/1265/284
f 553/1340/273 540/1341/266 564/1265/284
f 561/1329/271 562/1342/288 549/1311/301
f 561/1329/271 554/1250/267 562/1273/288
f 554/1343/267 544/1344/281 562/1273/288
f 555/1345/270 560/1262/282 544/1346/281
f 555/1345/270 558/1248/269 560/1347/282
f 558/1348/269 543/1332/278 560/1347/282
f 558/1348/269 559/1259/279 543/1349/278
f 558/1348/269 556/1246/268 559/1350/279
f 556/1351/268 542/1335/275 559/1350/279
f 556/1351/268 557/1256/276 542/1352/275
f 556/1351/268 551/1244/265 557/1353/276
f 551/1354/265 541/1338/272 557/1353/276
f 554/1343/267 555/1355/270 544/1346/281
f 554/1343/267 552/1240/264 555/1249/270
f 552/1356/264 539/1357/263 555/1249/270
f 551/1354/265 553/1253/273 541/1358/272
f 551/1354/265 552/1240/264 553/1359/273
f 552/1356/264 540/1341/266 553/1359/273
